<svg xmlns="http://www.w3.org/2000/svg" xmlns:xlink="http://www.w3.org/1999/xlink" width="1020" height="501.163" viewBox="0 0 1020 501.163">
  <defs>
    <linearGradient id="linear-gradient" x1="0.5" x2="0.5" y2="1" gradientUnits="objectBoundingBox">
      <stop offset="0" stop-color="#f1e2ff"/>
      <stop offset="1" stop-color="#dfefff"/>
    </linearGradient>
    <clipPath id="clip-path">
      <rect id="Rectángulo_461798" data-name="Rectángulo 461798" width="27.577" height="59.911" fill="none"/>
    </clipPath>
    <clipPath id="clip-path-2">
      <rect id="Rectángulo_461799" data-name="Rectángulo 461799" width="27.578" height="59.911" fill="none"/>
    </clipPath>
    <clipPath id="clip-path-3">
      <rect id="Rectángulo_461800" data-name="Rectángulo 461800" width="27.58" height="59.911" fill="none"/>
    </clipPath>
    <clipPath id="clip-path-5">
      <rect id="Rectángulo_461802" data-name="Rectángulo 461802" width="8.472" height="6.63" fill="none"/>
    </clipPath>
    <clipPath id="clip-path-6">
      <rect id="Rectángulo_461803" data-name="Rectángulo 461803" width="8.47" height="6.634" fill="none"/>
    </clipPath>
  </defs>
  <g id="Grupo_1213569" data-name="Grupo 1213569" transform="translate(-290 -2306)">
    <path id="Trazado_1277666" data-name="Trazado 1277666" d="M0,0H1020V501.117H0Z" transform="translate(290 2306)" fill="url(#linear-gradient)"/>
    <path id="Trazado_1277667" data-name="Trazado 1277667" d="M0,0H439V78H0Z" transform="translate(582 2372)" fill="#19538d"/>
    <path id="Trazado_1277668" data-name="Trazado 1277668" d="M116.329,21.619a11.837,11.837,0,0,1-4.014.625,8.168,8.168,0,0,1-3.857-.854,5.85,5.85,0,0,1-2.476-2.432,7.516,7.516,0,0,1-.854-3.638,8.008,8.008,0,0,1,.957-3.945A6.619,6.619,0,0,1,108.79,8.7a8.346,8.346,0,0,1,4.023-.942,13.984,13.984,0,0,1,3.516.439v3.9a4.961,4.961,0,0,0-1.4-.547,6.979,6.979,0,0,0-1.641-.2,3.672,3.672,0,0,0-2.71.986,3.606,3.606,0,0,0-.991,2.676,3.543,3.543,0,0,0,.991,2.651,3.624,3.624,0,0,0,2.651.972,6.879,6.879,0,0,0,3.1-.781Zm1.8.381V7.2h4.16V22ZM128.692,9.3a1.787,1.787,0,0,1-.64,1.426,2.5,2.5,0,0,1-1.685.547,2.441,2.441,0,0,1-1.665-.566,1.791,1.791,0,0,1-.649-1.406,1.734,1.734,0,0,1,.63-1.392,2.932,2.932,0,0,1,3.369,0A1.723,1.723,0,0,1,128.692,9.3Zm-4.4,12.7V12h4.16V22Zm9.746-3.818a1.405,1.405,0,0,0,.742,1.011,3.347,3.347,0,0,0,1.68.366A6.917,6.917,0,0,0,139.21,19v2.637a9.9,9.9,0,0,1-3.672.605,5.794,5.794,0,0,1-4.072-1.338,4.753,4.753,0,0,1-1.455-3.682,6.074,6.074,0,0,1,.64-2.842,4.6,4.6,0,0,1,1.895-1.929,5.6,5.6,0,0,1,2.769-.7,5.447,5.447,0,0,1,2.656.605,4.033,4.033,0,0,1,1.675,1.7,5.452,5.452,0,0,1,.571,2.559v1.563Zm2.5-2.178q0-1.729-1.24-1.729a1.049,1.049,0,0,0-.869.474,2.364,2.364,0,0,0-.41,1.255Zm11.6,6V16.541a2.427,2.427,0,0,0-.278-1.333,1.017,1.017,0,0,0-.9-.405.978.978,0,0,0-.84.42,1.792,1.792,0,0,0-.3,1.074V22h-4.16V12h4.16v1.563h.039a3.53,3.53,0,0,1,1.338-1.333,3.655,3.655,0,0,1,1.826-.474q3.281,0,3.281,4.141V22Zm13.076-.137a4.053,4.053,0,0,1-.928.259,8.482,8.482,0,0,1-1.553.122,3.73,3.73,0,0,1-2.72-.957,3.632,3.632,0,0,1-.981-2.725V14.881h-1.572V12h1.572V10.037l4.1-1.133V12h2.08v2.881h-2.08v3q0,1.318,1.045,1.318a2.835,2.835,0,0,0,1.035-.215Zm4.883-3.682a1.405,1.405,0,0,0,.742,1.011,3.347,3.347,0,0,0,1.68.366A6.917,6.917,0,0,0,171.271,19v2.637a9.9,9.9,0,0,1-3.672.605,5.794,5.794,0,0,1-4.072-1.338,4.753,4.753,0,0,1-1.455-3.682,6.074,6.074,0,0,1,.64-2.842,4.6,4.6,0,0,1,1.895-1.929,5.6,5.6,0,0,1,2.769-.7,5.447,5.447,0,0,1,2.656.605,4.033,4.033,0,0,1,1.675,1.7,5.452,5.452,0,0,1,.571,2.559v1.563Zm2.5-2.178q0-1.729-1.24-1.729a1.049,1.049,0,0,0-.869.474,2.364,2.364,0,0,0-.41,1.255Zm12.676,8.32h-3.662L184.532,8h3.662ZM200.948,22V16.541a2.427,2.427,0,0,0-.278-1.333,1.017,1.017,0,0,0-.9-.405.978.978,0,0,0-.84.42,1.792,1.792,0,0,0-.3,1.074V22h-4.16V12h4.16v1.563h.039A3.53,3.53,0,0,1,200,12.229a3.655,3.655,0,0,1,1.826-.474q3.281,0,3.281,4.141V22Zm11.582,0V20.477h-.039a3.272,3.272,0,0,1-3.047,1.768,2.917,2.917,0,0,1-2.217-.84,3.12,3.12,0,0,1-.8-2.246q0-2.949,3.623-3.418l2.48-.322a.946.946,0,0,0-.439-.8,2,2,0,0,0-1.182-.312,7.783,7.783,0,0,0-3.545.957V12.557a9.484,9.484,0,0,1,2.031-.576,11.822,11.822,0,0,1,2.09-.225,5.247,5.247,0,0,1,3.7,1.089,4.853,4.853,0,0,1,1.147,3.638V22Zm-2.461-3.4a.922.922,0,0,0,.259.674.987.987,0,0,0,.737.264,1.311,1.311,0,0,0,1.06-.488,1.892,1.892,0,0,0,.405-1.25V17.42l-1.406.2Q210.069,17.791,210.069,18.6Zm15.42,3.4h-4.941l-3.34-10h4.336l1.221,5.459a12.629,12.629,0,0,1,.322,1.982h.059q.02-.2.054-.4T224.649,12h4.316Zm8.057-3.818a1.405,1.405,0,0,0,.742,1.011,3.347,3.347,0,0,0,1.68.366A6.917,6.917,0,0,0,238.722,19v2.637a9.9,9.9,0,0,1-3.672.605,5.794,5.794,0,0,1-4.072-1.338,4.753,4.753,0,0,1-1.455-3.682,6.074,6.074,0,0,1,.64-2.842,4.6,4.6,0,0,1,1.895-1.929,5.6,5.6,0,0,1,2.769-.7,5.447,5.447,0,0,1,2.656.605,4.033,4.033,0,0,1,1.675,1.7,5.452,5.452,0,0,1,.571,2.559v1.563Zm2.5-2.178q0-1.729-1.24-1.729a1.049,1.049,0,0,0-.869.474,2.364,2.364,0,0,0-.41,1.255ZM252,20.6a5.685,5.685,0,0,1-1.812,4.487A7.736,7.736,0,0,1,244.9,26.7a11.033,11.033,0,0,1-1.816-.146,5.006,5.006,0,0,1-1.26-.332V22.957a6.284,6.284,0,0,0,2.959.859,3.469,3.469,0,0,0,2.236-.674,2.177,2.177,0,0,0,.84-1.787V20.74h-.039a3.232,3.232,0,0,1-1.235,1.094,3.589,3.589,0,0,1-1.685.41,3.775,3.775,0,0,1-3.057-1.343,5.605,5.605,0,0,1-1.123-3.706,6.627,6.627,0,0,1,.586-2.861,4.465,4.465,0,0,1,1.631-1.909,4.188,4.188,0,0,1,2.3-.669,2.884,2.884,0,0,1,2.578,1.279h.039V12H252Zm-4.072-3.887a2.245,2.245,0,0,0-.4-1.4,1.256,1.256,0,0,0-1.05-.518,1.293,1.293,0,0,0-1.123.625,2.951,2.951,0,0,0-.42,1.67,2.89,2.89,0,0,0,.352,1.533,1.214,1.214,0,0,0,1.113.566,1.29,1.29,0,0,0,1.118-.581,2.676,2.676,0,0,0,.405-1.558ZM259.552,22V20.477h-.039a3.272,3.272,0,0,1-3.047,1.768,2.917,2.917,0,0,1-2.217-.84,3.12,3.12,0,0,1-.8-2.246q0-2.949,3.623-3.418l2.48-.322a.946.946,0,0,0-.439-.8,2,2,0,0,0-1.182-.312,7.783,7.783,0,0,0-3.545.957V12.557a9.484,9.484,0,0,1,2.031-.576,11.822,11.822,0,0,1,2.09-.225,5.247,5.247,0,0,1,3.7,1.089,4.853,4.853,0,0,1,1.147,3.638V22Zm-2.461-3.4a.922.922,0,0,0,.259.674.987.987,0,0,0,.737.264,1.311,1.311,0,0,0,1.06-.488,1.892,1.892,0,0,0,.405-1.25V17.42l-1.406.2Q257.091,17.791,257.091,18.6ZM271.905,22V20.838h-.039a3.433,3.433,0,0,1-1.3,1.03,3.7,3.7,0,0,1-1.582.376,4.069,4.069,0,0,1-2.256-.63,3.825,3.825,0,0,1-1.46-1.763,6.784,6.784,0,0,1-.483-2.676,6.583,6.583,0,0,1,.576-2.822,4.51,4.51,0,0,1,1.621-1.914,4.188,4.188,0,0,1,2.344-.684,3.547,3.547,0,0,1,1.138.176,3.078,3.078,0,0,1,.908.474,1.414,1.414,0,0,1,.493.591h.039V7.2h4.16V22Zm.088-5.3a2.194,2.194,0,0,0-.4-1.4,1.335,1.335,0,0,0-2.168.122A2.881,2.881,0,0,0,269,17.078q0,2.119,1.465,2.119a1.3,1.3,0,0,0,1.108-.571,2.812,2.812,0,0,0,.415-1.665Zm17.2.127a5.207,5.207,0,0,1-1.528,3.975,7.061,7.061,0,0,1-8.516.034,5.051,5.051,0,0,1-1.519-3.892,5.214,5.214,0,0,1,.713-2.764,4.636,4.636,0,0,1,2.031-1.8,7.012,7.012,0,0,1,3.037-.625,6.792,6.792,0,0,1,3.081.654,4.763,4.763,0,0,1,2,1.816A4.946,4.946,0,0,1,289.19,16.824Zm-4.219.02q0-2.041-1.562-2.041t-1.562,2.139q0,2.256,1.582,2.256Q284.972,19.2,284.972,16.844Zm13.291-1.279a4,4,0,0,0-1.3-.283q-2.061,0-2.061,2.383V22h-4.16V12h4.16v1.758h.039a3.123,3.123,0,0,1,1.084-1.44,2.785,2.785,0,0,1,1.641-.493,1.409,1.409,0,0,1,.6.117Z" transform="translate(600 2405)" fill="#fff"/>
    <path id="Trazado_1277669" data-name="Trazado 1277669" d="M0,0H65V65H0Z" transform="translate(768 2328)" fill="#dda2ff"/>
    <path id="Trazado_1277451" data-name="Trazado 1277451" d="M-5095-9282.846v247.982" transform="translate(5895 11724)" fill="none" stroke="#19538d" stroke-width="2" stroke-dasharray="5"/>
    <path id="Trazado_1277670" data-name="Trazado 1277670" d="M0,0H439V78H0Z" transform="translate(581 2578)" fill="#9dccff"/>
    <path id="Trazado_1277452" data-name="Trazado 1277452" d="M0,0H439V78H0Z" transform="translate(581 2681)" fill="#c1dbf8"/>
    <path id="Trazado_1277671" data-name="Trazado 1277671" d="M150.787,18.49V16.75a3.38,3.38,0,0,0,.716.475,5.8,5.8,0,0,0,.879.356,7,7,0,0,0,.927.224,5.17,5.17,0,0,0,.861.079,3.374,3.374,0,0,0,2.035-.505,1.9,1.9,0,0,0,.448-2.342,2.525,2.525,0,0,0-.62-.69,6.148,6.148,0,0,0-.936-.6q-.541-.286-1.165-.6-.659-.334-1.23-.677a5.332,5.332,0,0,1-.993-.756,3.153,3.153,0,0,1-.664-.936,2.9,2.9,0,0,1-.242-1.226,2.883,2.883,0,0,1,.378-1.5A3.242,3.242,0,0,1,152.176,7a4.5,4.5,0,0,1,1.4-.615,6.419,6.419,0,0,1,1.6-.2,6.147,6.147,0,0,1,2.716.448V8.295a4.923,4.923,0,0,0-2.865-.773,4.712,4.712,0,0,0-.967.1,2.731,2.731,0,0,0-.861.33,1.908,1.908,0,0,0-.615.589,1.563,1.563,0,0,0-.237.879,1.809,1.809,0,0,0,.18.835,2.046,2.046,0,0,0,.532.642,5.3,5.3,0,0,0,.857.563q.505.272,1.165.6.677.334,1.283.7a5.865,5.865,0,0,1,1.063.817,3.632,3.632,0,0,1,.725.993,2.792,2.792,0,0,1,.268,1.248,3.165,3.165,0,0,1-.365,1.578,2.993,2.993,0,0,1-.984,1.05,4.3,4.3,0,0,1-1.428.584,7.822,7.822,0,0,1-1.705.18,6.948,6.948,0,0,1-.738-.048q-.439-.048-.9-.141a7.315,7.315,0,0,1-.866-.229A2.694,2.694,0,0,1,150.787,18.49Zm17.191-3.63h-6.354a3.366,3.366,0,0,0,.809,2.32A2.788,2.788,0,0,0,164.56,18a4.422,4.422,0,0,0,2.795-1V18.35a5.224,5.224,0,0,1-3.138.861,3.8,3.8,0,0,1-3-1.226,5.018,5.018,0,0,1-1.09-3.45,4.921,4.921,0,0,1,1.191-3.423,3.819,3.819,0,0,1,2.958-1.323,3.384,3.384,0,0,1,2.733,1.143,4.764,4.764,0,0,1,.967,3.173ZM166.5,13.639a2.933,2.933,0,0,0-.6-1.942A2.051,2.051,0,0,0,164.252,11a2.328,2.328,0,0,0-1.731.729,3.31,3.31,0,0,0-.879,1.907Zm8.35-2.18a1.763,1.763,0,0,0-1.09-.29,1.839,1.839,0,0,0-1.542.87,4.023,4.023,0,0,0-.62,2.373V19h-1.441V10H171.6v1.854h.035a3.143,3.143,0,0,1,.94-1.481,2.144,2.144,0,0,1,1.415-.532,2.353,2.353,0,0,1,.861.123ZM183.491,10l-3.586,9H178.49l-3.41-9h1.582l2.285,6.539a5.869,5.869,0,0,1,.316,1.257h.035a5.943,5.943,0,0,1,.281-1.222L181.971,10Zm2.285-2.285a.913.913,0,0,1-.659-.264.89.89,0,0,1-.272-.668.923.923,0,0,1,.932-.94.931.931,0,0,1,.672.268.939.939,0,0,1,0,1.332A.923.923,0,0,1,185.776,7.715Zm.7,11.285h-1.441V10h1.441Zm10.6,0h-1.441V17.471H195.6a3.327,3.327,0,0,1-3.094,1.74A3.362,3.362,0,0,1,189.8,18a4.958,4.958,0,0,1-1.015-3.292,5.394,5.394,0,0,1,1.125-3.577,3.71,3.71,0,0,1,3-1.345,2.885,2.885,0,0,1,2.7,1.459h.035V5.676h1.441Zm-1.441-4.069V13.6a2.575,2.575,0,0,0-.721-1.846A2.417,2.417,0,0,0,193.089,11a2.489,2.489,0,0,0-2.074.967,4.237,4.237,0,0,0-.756,2.672,3.81,3.81,0,0,0,.725,2.457,2.37,2.37,0,0,0,1.947.9,2.462,2.462,0,0,0,1.956-.87A3.242,3.242,0,0,0,195.638,14.931Zm8.121,4.28a4.175,4.175,0,0,1-3.186-1.261,4.672,4.672,0,0,1-1.191-3.344,4.867,4.867,0,0,1,1.239-3.542,4.455,4.455,0,0,1,3.349-1.274,4.037,4.037,0,0,1,3.142,1.239,4.914,4.914,0,0,1,1.129,3.437,4.835,4.835,0,0,1-1.217,3.45A4.265,4.265,0,0,1,203.759,19.211ZM203.864,11a2.742,2.742,0,0,0-2.2.945,3.88,3.88,0,0,0-.809,2.606,3.67,3.67,0,0,0,.817,2.522,2.778,2.778,0,0,0,2.188.923,2.635,2.635,0,0,0,2.149-.905,3.928,3.928,0,0,0,.751-2.575,4,4,0,0,0-.751-2.6A2.623,2.623,0,0,0,203.864,11Zm11.373.457a1.763,1.763,0,0,0-1.09-.29,1.839,1.839,0,0,0-1.542.87,4.023,4.023,0,0,0-.62,2.373V19h-1.441V10h1.441v1.854h.035a3.143,3.143,0,0,1,.94-1.481,2.144,2.144,0,0,1,1.415-.532,2.353,2.353,0,0,1,.861.123ZM233.07,10l-2.7,9h-1.494l-1.854-6.442a4.2,4.2,0,0,1-.141-.835h-.035a3.941,3.941,0,0,1-.185.817L224.65,19h-1.441l-2.725-9H222l1.863,6.768a4.077,4.077,0,0,1,.123.809h.07a3.782,3.782,0,0,1,.158-.826L226.285,10H227.6l1.863,6.785a4.844,4.844,0,0,1,.132.809h.07a3.74,3.74,0,0,1,.149-.809L231.646,10Zm8.9,4.86h-6.354a3.366,3.366,0,0,0,.809,2.32,2.788,2.788,0,0,0,2.127.817,4.422,4.422,0,0,0,2.795-1V18.35a5.224,5.224,0,0,1-3.138.861,3.8,3.8,0,0,1-3-1.226,5.018,5.018,0,0,1-1.09-3.45,4.921,4.921,0,0,1,1.191-3.423,3.819,3.819,0,0,1,2.958-1.323,3.384,3.384,0,0,1,2.733,1.143,4.764,4.764,0,0,1,.967,3.173ZM240.5,13.639a2.933,2.933,0,0,0-.6-1.942A2.051,2.051,0,0,0,238.247,11a2.328,2.328,0,0,0-1.731.729,3.31,3.31,0,0,0-.879,1.907ZM245.63,17.7h-.035V19h-1.441V5.676h1.441v5.906h.035a3.408,3.408,0,0,1,3.111-1.793A3.3,3.3,0,0,1,251.453,11a4.99,4.99,0,0,1,.98,3.239,5.578,5.578,0,0,1-1.1,3.617,3.658,3.658,0,0,1-3.006,1.358A2.96,2.96,0,0,1,245.63,17.7Zm-.035-3.63v1.257a2.676,2.676,0,0,0,.725,1.894A2.587,2.587,0,0,0,250.213,17a4.6,4.6,0,0,0,.743-2.786,3.629,3.629,0,0,0-.694-2.355A2.3,2.3,0,0,0,248.381,11a2.554,2.554,0,0,0-2.021.875A3.211,3.211,0,0,0,245.595,14.069Z" transform="translate(599 2708)" fill="#12263f"/>
    <path id="Trazado_1277672" data-name="Trazado 1277672" d="M81.45,7.732H77.812V19H76.335V7.732h-3.63V6.4H81.45Zm9.721,10.74a7.392,7.392,0,0,1-3.48.738,5.613,5.613,0,0,1-4.307-1.731,6.389,6.389,0,0,1-1.617-4.544,6.7,6.7,0,0,1,1.819-4.887A6.175,6.175,0,0,1,88.2,6.186a7.4,7.4,0,0,1,2.971.519V8.277a6.024,6.024,0,0,0-2.988-.756,4.585,4.585,0,0,0-3.52,1.45,5.463,5.463,0,0,0-1.349,3.876,5.2,5.2,0,0,0,1.261,3.669,4.292,4.292,0,0,0,3.309,1.367,6.208,6.208,0,0,0,3.287-.844Zm4.043-4.236V19H93.737V6.4H97.2a4.571,4.571,0,0,1,3.133.984,3.515,3.515,0,0,1,1.112,2.777,3.82,3.82,0,0,1-1.235,2.936,4.718,4.718,0,0,1-3.335,1.143Zm0-6.5V12.9h1.547a3.458,3.458,0,0,0,2.333-.7,2.474,2.474,0,0,0,.8-1.973q0-2.5-2.953-2.5ZM114.242,6.4l-6.047,14.7h-1.345L112.88,6.4ZM122.17,19h-1.477V6.4h1.477Zm4.79-4.764V19h-1.477V6.4h3.463a4.571,4.571,0,0,1,3.133.984,3.515,3.515,0,0,1,1.112,2.777,3.82,3.82,0,0,1-1.235,2.936,4.718,4.718,0,0,1-3.335,1.143Zm0-6.5V12.9h1.547a3.458,3.458,0,0,0,2.333-.7,2.474,2.474,0,0,0,.8-1.973q0-2.5-2.953-2.5Zm17.121,14.133H142.8a11.232,11.232,0,0,1-2.725-7.673A11.658,11.658,0,0,1,142.8,6.4h1.3a11.845,11.845,0,0,0-2.76,7.778A11.638,11.638,0,0,0,144.081,21.865ZM154.5,18.473a7.392,7.392,0,0,1-3.48.738,5.613,5.613,0,0,1-4.307-1.731,6.389,6.389,0,0,1-1.617-4.544,6.7,6.7,0,0,1,1.819-4.887,6.175,6.175,0,0,1,4.614-1.863A7.4,7.4,0,0,1,154.5,6.7V8.277a6.024,6.024,0,0,0-2.988-.756A4.585,4.585,0,0,0,148,8.972a5.463,5.463,0,0,0-1.349,3.876,5.2,5.2,0,0,0,1.261,3.669,4.292,4.292,0,0,0,3.309,1.367,6.208,6.208,0,0,0,3.287-.844Zm6.135.738a4.175,4.175,0,0,1-3.186-1.261,4.672,4.672,0,0,1-1.191-3.344,4.867,4.867,0,0,1,1.239-3.542,4.455,4.455,0,0,1,3.349-1.274,4.037,4.037,0,0,1,3.142,1.239,4.914,4.914,0,0,1,1.129,3.437,4.835,4.835,0,0,1-1.217,3.45A4.265,4.265,0,0,1,160.64,19.211ZM160.745,11a2.742,2.742,0,0,0-2.2.945,3.88,3.88,0,0,0-.809,2.606,3.67,3.67,0,0,0,.817,2.522,2.778,2.778,0,0,0,2.188.923,2.635,2.635,0,0,0,2.149-.905,3.928,3.928,0,0,0,.751-2.575,4,4,0,0,0-.751-2.6A2.623,2.623,0,0,0,160.745,11Zm14.15,8h-1.441V13.867q0-2.865-2.092-2.865a2.269,2.269,0,0,0-1.789.813,3.013,3.013,0,0,0-.708,2.052V19h-1.441V10h1.441v1.494h.035a3.248,3.248,0,0,1,2.953-1.705,2.753,2.753,0,0,1,2.259.954A4.248,4.248,0,0,1,174.9,13.5Zm6.891-.088a2.779,2.779,0,0,1-1.345.281q-2.364,0-2.364-2.637V11.23H176.53V10h1.547V7.8l1.441-.466V10h2.268v1.23h-2.268V16.3a2.1,2.1,0,0,0,.308,1.292,1.228,1.228,0,0,0,1.02.387,1.515,1.515,0,0,0,.94-.3Zm6.618-7.453a1.763,1.763,0,0,0-1.09-.29,1.839,1.839,0,0,0-1.542.87,4.023,4.023,0,0,0-.62,2.373V19h-1.441V10h1.441v1.854h.035a3.143,3.143,0,0,1,.94-1.481,2.144,2.144,0,0,1,1.415-.532,2.353,2.353,0,0,1,.861.123Zm5.326,7.752a4.175,4.175,0,0,1-3.186-1.261,4.672,4.672,0,0,1-1.191-3.344,4.867,4.867,0,0,1,1.239-3.542,4.455,4.455,0,0,1,3.349-1.274,4.037,4.037,0,0,1,3.142,1.239,4.914,4.914,0,0,1,1.129,3.437A4.835,4.835,0,0,1,197,17.915,4.265,4.265,0,0,1,193.73,19.211ZM193.836,11a2.742,2.742,0,0,0-2.2.945,3.88,3.88,0,0,0-.809,2.606,3.67,3.67,0,0,0,.817,2.522,2.778,2.778,0,0,0,2.188.923,2.635,2.635,0,0,0,2.149-.905,3.928,3.928,0,0,0,.751-2.575,4,4,0,0,0-.751-2.6A2.623,2.623,0,0,0,193.836,11Zm8.121,8h-1.441V5.676h1.441Zm15.53,0h-1.441V17.471h-.035a3.327,3.327,0,0,1-3.094,1.74A3.362,3.362,0,0,1,210.206,18a4.958,4.958,0,0,1-1.015-3.292,5.394,5.394,0,0,1,1.125-3.577,3.71,3.71,0,0,1,3-1.345,2.885,2.885,0,0,1,2.7,1.459h.035V5.676h1.441Zm-1.441-4.069V13.6a2.575,2.575,0,0,0-.721-1.846A2.417,2.417,0,0,0,213.5,11a2.489,2.489,0,0,0-2.074.967,4.237,4.237,0,0,0-.756,2.672,3.81,3.81,0,0,0,.725,2.457,2.37,2.37,0,0,0,1.947.9,2.462,2.462,0,0,0,1.956-.87A3.242,3.242,0,0,0,216.046,14.931Zm11.593-.07h-6.354a3.366,3.366,0,0,0,.809,2.32A2.788,2.788,0,0,0,224.22,18a4.422,4.422,0,0,0,2.795-1V18.35a5.224,5.224,0,0,1-3.138.861,3.8,3.8,0,0,1-3-1.226,5.018,5.018,0,0,1-1.09-3.45,4.921,4.921,0,0,1,1.191-3.423,3.819,3.819,0,0,1,2.958-1.323,3.384,3.384,0,0,1,2.733,1.143,4.764,4.764,0,0,1,.967,3.173Zm-1.477-1.222a2.933,2.933,0,0,0-.6-1.942A2.051,2.051,0,0,0,223.912,11a2.328,2.328,0,0,0-1.731.729,3.31,3.31,0,0,0-.879,1.907Zm12.762,5.273a2.779,2.779,0,0,1-1.345.281q-2.364,0-2.364-2.637V11.23h-1.547V10h1.547V7.8l1.441-.466V10h2.268v1.23h-2.268V16.3a2.1,2.1,0,0,0,.308,1.292,1.228,1.228,0,0,0,1.02.387,1.515,1.515,0,0,0,.94-.3Zm6.618-7.453a1.763,1.763,0,0,0-1.09-.29,1.839,1.839,0,0,0-1.542.87,4.023,4.023,0,0,0-.62,2.373V19h-1.441V10h1.441v1.854h.035a3.143,3.143,0,0,1,.94-1.481,2.144,2.144,0,0,1,1.415-.532,2.353,2.353,0,0,1,.861.123ZM253.549,19h-1.441V17.594h-.035a3.018,3.018,0,0,1-2.769,1.617,2.959,2.959,0,0,1-2.1-.712,2.466,2.466,0,0,1-.76-1.89q0-2.522,2.971-2.936l2.7-.378q0-2.294-1.854-2.294a4.431,4.431,0,0,0-2.936,1.107V10.633a5.577,5.577,0,0,1,3.059-.844q3.173,0,3.173,3.357Zm-1.441-4.553-2.171.3a3.525,3.525,0,0,0-1.512.5,1.432,1.432,0,0,0-.51,1.261,1.374,1.374,0,0,0,.47,1.077,1.817,1.817,0,0,0,1.252.417,2.314,2.314,0,0,0,1.771-.751,2.685,2.685,0,0,0,.7-1.9ZM263.735,19h-1.441V13.867Q262.294,11,260.2,11a2.269,2.269,0,0,0-1.789.813,3.013,3.013,0,0,0-.708,2.052V19h-1.441V10h1.441v1.494h.035a3.248,3.248,0,0,1,2.953-1.705,2.753,2.753,0,0,1,2.259.954,4.248,4.248,0,0,1,.782,2.755Zm2.171-.325V17.128A4.266,4.266,0,0,0,268.5,18q1.9,0,1.9-1.266a1.1,1.1,0,0,0-.163-.611,1.62,1.62,0,0,0-.439-.444,3.383,3.383,0,0,0-.65-.347q-.374-.154-.8-.321a10.357,10.357,0,0,1-1.05-.479,3.173,3.173,0,0,1-.756-.545,2.028,2.028,0,0,1-.457-.69,2.441,2.441,0,0,1-.154-.905,2.15,2.15,0,0,1,.29-1.121,2.572,2.572,0,0,1,.773-.817,3.607,3.607,0,0,1,1.1-.5,4.893,4.893,0,0,1,1.279-.167,5.164,5.164,0,0,1,2.092.4v1.459a4.077,4.077,0,0,0-2.285-.65,2.671,2.671,0,0,0-.729.092,1.786,1.786,0,0,0-.558.259,1.2,1.2,0,0,0-.36.4,1.053,1.053,0,0,0-.127.514,1.233,1.233,0,0,0,.127.589,1.3,1.3,0,0,0,.374.422,2.855,2.855,0,0,0,.6.334q.352.149.8.325a11.131,11.131,0,0,1,1.072.47,3.678,3.678,0,0,1,.809.545,2.129,2.129,0,0,1,.514.7,2.254,2.254,0,0,1,.18.94,2.217,2.217,0,0,1-.294,1.16,2.523,2.523,0,0,1-.787.817,3.6,3.6,0,0,1-1.134.483,5.6,5.6,0,0,1-1.345.158A5.106,5.106,0,0,1,265.906,18.675ZM286.868,19h-1.441V13.832a3.9,3.9,0,0,0-.461-2.162A1.75,1.75,0,0,0,283.414,11a1.921,1.921,0,0,0-1.569.844,3.228,3.228,0,0,0-.646,2.021V19h-1.441V13.656q0-2.654-2.048-2.654a1.9,1.9,0,0,0-1.564.8,3.288,3.288,0,0,0-.615,2.07V19h-1.441V10h1.441v1.424h.035a3.058,3.058,0,0,1,2.795-1.635,2.6,2.6,0,0,1,2.549,1.863A3.212,3.212,0,0,1,283.9,9.789q2.971,0,2.971,3.665Zm3.463-11.285a.913.913,0,0,1-.659-.264.89.89,0,0,1-.272-.668.923.923,0,0,1,.932-.94.931.931,0,0,1,.672.268.939.939,0,0,1,0,1.332A.923.923,0,0,1,290.331,7.715Zm.7,11.285h-1.441V10h1.441Zm2.373-.325V17.128A4.266,4.266,0,0,0,296,18q1.9,0,1.9-1.266a1.1,1.1,0,0,0-.163-.611,1.62,1.62,0,0,0-.439-.444,3.383,3.383,0,0,0-.65-.347q-.374-.154-.8-.321a10.357,10.357,0,0,1-1.05-.479,3.173,3.173,0,0,1-.756-.545,2.028,2.028,0,0,1-.457-.69,2.441,2.441,0,0,1-.154-.905,2.15,2.15,0,0,1,.29-1.121,2.572,2.572,0,0,1,.773-.817,3.607,3.607,0,0,1,1.1-.5,4.893,4.893,0,0,1,1.279-.167,5.164,5.164,0,0,1,2.092.4v1.459a4.077,4.077,0,0,0-2.285-.65,2.671,2.671,0,0,0-.729.092,1.786,1.786,0,0,0-.558.259,1.2,1.2,0,0,0-.36.4,1.053,1.053,0,0,0-.127.514,1.233,1.233,0,0,0,.127.589,1.3,1.3,0,0,0,.374.422,2.855,2.855,0,0,0,.6.334q.352.149.8.325a11.131,11.131,0,0,1,1.072.47,3.678,3.678,0,0,1,.809.545,2.129,2.129,0,0,1,.514.7,2.254,2.254,0,0,1,.18.94,2.217,2.217,0,0,1-.294,1.16,2.523,2.523,0,0,1-.787.817,3.6,3.6,0,0,1-1.134.483,5.6,5.6,0,0,1-1.345.158A5.106,5.106,0,0,1,293.407,18.675Zm8.921-10.96a.913.913,0,0,1-.659-.264.89.89,0,0,1-.272-.668.923.923,0,0,1,.932-.94.931.931,0,0,1,.672.268.939.939,0,0,1,0,1.332A.923.923,0,0,1,302.328,7.715Zm.7,11.285H301.59V10h1.441Zm6.68.211a4.175,4.175,0,0,1-3.186-1.261,4.672,4.672,0,0,1-1.191-3.344,4.867,4.867,0,0,1,1.239-3.542,4.455,4.455,0,0,1,3.349-1.274,4.037,4.037,0,0,1,3.142,1.239,4.914,4.914,0,0,1,1.129,3.437,4.835,4.835,0,0,1-1.217,3.45A4.265,4.265,0,0,1,309.711,19.211ZM309.816,11a2.742,2.742,0,0,0-2.2.945,3.88,3.88,0,0,0-.809,2.606,3.67,3.67,0,0,0,.817,2.522,2.778,2.778,0,0,0,2.188.923,2.635,2.635,0,0,0,2.149-.905,3.928,3.928,0,0,0,.751-2.575,4,4,0,0,0-.751-2.6A2.623,2.623,0,0,0,309.816,11Zm2.109-5.59-2.3,2.883h-1.116l1.96-2.883ZM323.967,19h-1.441V13.867q0-2.865-2.092-2.865a2.269,2.269,0,0,0-1.789.813,3.013,3.013,0,0,0-.708,2.052V19H316.5V10h1.441v1.494h.035a3.248,3.248,0,0,1,2.953-1.705,2.753,2.753,0,0,1,2.259.954,4.248,4.248,0,0,1,.782,2.755Zm2.751,2.865h-1.283a11.638,11.638,0,0,0,2.742-7.69,11.845,11.845,0,0,0-2.76-7.778h1.3a11.611,11.611,0,0,1,2.742,7.8A11.188,11.188,0,0,1,326.718,21.865Z" transform="translate(599 2605)" fill="#12263f"/>
    <path id="Trazado_1277673" data-name="Trazado 1277673" d="M0,0H439V78H0Z" transform="translate(581 2472)" fill="#7dbfff"/>
    <path id="Trazado_1277453" data-name="Trazado 1277453" d="M0,0H219V78H0Z" transform="translate(801 2472)" fill="#9ecfff"/>
    <path id="Trazado_1277674" data-name="Trazado 1277674" d="M30.946,18.473a7.392,7.392,0,0,1-3.48.738,5.613,5.613,0,0,1-4.307-1.731,6.389,6.389,0,0,1-1.617-4.544,6.7,6.7,0,0,1,1.819-4.887,6.175,6.175,0,0,1,4.614-1.863,7.4,7.4,0,0,1,2.971.519V8.277a6.024,6.024,0,0,0-2.988-.756,4.585,4.585,0,0,0-3.52,1.45,5.463,5.463,0,0,0-1.349,3.876,5.2,5.2,0,0,0,1.261,3.669,4.292,4.292,0,0,0,3.309,1.367,6.208,6.208,0,0,0,3.287-.844ZM34.057,7.715a.913.913,0,0,1-.659-.264.89.89,0,0,1-.272-.668.923.923,0,0,1,.932-.94.931.931,0,0,1,.672.268.939.939,0,0,1,0,1.332A.923.923,0,0,1,34.057,7.715ZM34.76,19H33.319V10H34.76ZM42.125,6.941a1.92,1.92,0,0,0-.958-.237q-1.512,0-1.512,1.907V10h2.109v1.23H39.656V19H38.223V11.23H36.685V10h1.538V8.541A3.032,3.032,0,0,1,39.041,6.3a2.759,2.759,0,0,1,2.039-.822,2.824,2.824,0,0,1,1.046.158Zm5.88,4.518a1.763,1.763,0,0,0-1.09-.29,1.839,1.839,0,0,0-1.542.87,4.023,4.023,0,0,0-.62,2.373V19H43.312V10h1.441v1.854h.035a3.143,3.143,0,0,1,.94-1.481,2.144,2.144,0,0,1,1.415-.532,2.353,2.353,0,0,1,.861.123ZM56.012,19H54.571V17.594h-.035a3.018,3.018,0,0,1-2.769,1.617,2.959,2.959,0,0,1-2.1-.712,2.466,2.466,0,0,1-.76-1.89q0-2.522,2.971-2.936l2.7-.378Q54.571,11,52.716,11a4.431,4.431,0,0,0-2.936,1.107V10.633a5.577,5.577,0,0,1,3.059-.844q3.173,0,3.173,3.357Zm-1.441-4.553-2.171.3a3.525,3.525,0,0,0-1.512.5,1.432,1.432,0,0,0-.51,1.261,1.374,1.374,0,0,0,.47,1.077A1.817,1.817,0,0,0,52.1,18a2.314,2.314,0,0,0,1.771-.751,2.685,2.685,0,0,0,.7-1.9ZM66.41,19H64.968V17.471h-.035a3.327,3.327,0,0,1-3.094,1.74A3.362,3.362,0,0,1,59.128,18a4.958,4.958,0,0,1-1.015-3.292,5.394,5.394,0,0,1,1.125-3.577,3.71,3.71,0,0,1,3-1.345,2.885,2.885,0,0,1,2.7,1.459h.035V5.676H66.41Zm-1.441-4.069V13.6a2.575,2.575,0,0,0-.721-1.846A2.417,2.417,0,0,0,62.419,11a2.489,2.489,0,0,0-2.074.967,4.237,4.237,0,0,0-.756,2.672,3.81,3.81,0,0,0,.725,2.457,2.37,2.37,0,0,0,1.947.9,2.462,2.462,0,0,0,1.956-.87A3.242,3.242,0,0,0,64.968,14.931Zm8.121,4.28A4.175,4.175,0,0,1,69.9,17.95a4.672,4.672,0,0,1-1.191-3.344,4.867,4.867,0,0,1,1.239-3.542A4.455,4.455,0,0,1,73.3,9.789a4.037,4.037,0,0,1,3.142,1.239,4.914,4.914,0,0,1,1.129,3.437,4.835,4.835,0,0,1-1.217,3.45A4.265,4.265,0,0,1,73.089,19.211ZM73.195,11a2.742,2.742,0,0,0-2.2.945,3.88,3.88,0,0,0-.809,2.606,3.67,3.67,0,0,0,.817,2.522A2.778,2.778,0,0,0,73.195,18a2.635,2.635,0,0,0,2.149-.905,3.928,3.928,0,0,0,.751-2.575,4,4,0,0,0-.751-2.6A2.623,2.623,0,0,0,73.195,11Zm19.257-3.27H88.813V19H87.336V7.732h-3.63V6.4h8.745ZM100.968,19H94.429V6.4h1.477V17.664h5.063Zm1.345-.51V16.75a3.38,3.38,0,0,0,.716.475,5.8,5.8,0,0,0,.879.356,7,7,0,0,0,.927.224,5.17,5.17,0,0,0,.861.079,3.374,3.374,0,0,0,2.035-.505,1.9,1.9,0,0,0,.448-2.342,2.525,2.525,0,0,0-.62-.69,6.148,6.148,0,0,0-.936-.6q-.541-.286-1.165-.6-.659-.334-1.23-.677a5.332,5.332,0,0,1-.993-.756,3.153,3.153,0,0,1-.664-.936,2.9,2.9,0,0,1-.242-1.226,2.883,2.883,0,0,1,.378-1.5A3.242,3.242,0,0,1,103.7,7a4.5,4.5,0,0,1,1.4-.615,6.419,6.419,0,0,1,1.6-.2,6.147,6.147,0,0,1,2.716.448V8.295a4.923,4.923,0,0,0-2.865-.773,4.712,4.712,0,0,0-.967.1,2.731,2.731,0,0,0-.861.33,1.908,1.908,0,0,0-.615.589,1.563,1.563,0,0,0-.237.879,1.809,1.809,0,0,0,.18.835,2.046,2.046,0,0,0,.532.642,5.3,5.3,0,0,0,.857.563q.505.272,1.165.6.677.334,1.283.7a5.865,5.865,0,0,1,1.063.817,3.632,3.632,0,0,1,.725.993,2.792,2.792,0,0,1,.268,1.248,3.165,3.165,0,0,1-.365,1.578,2.993,2.993,0,0,1-.984,1.05,4.3,4.3,0,0,1-1.428.584,7.822,7.822,0,0,1-1.705.18,6.948,6.948,0,0,1-.738-.048q-.439-.048-.9-.141a7.315,7.315,0,0,1-.866-.229A2.694,2.694,0,0,1,102.313,18.49ZM122.888,6.4l-6.047,14.7H115.5l6.029-14.7ZM128.75,18.49V16.75a3.38,3.38,0,0,0,.716.475,5.8,5.8,0,0,0,.879.356,7,7,0,0,0,.927.224,5.17,5.17,0,0,0,.861.079,3.374,3.374,0,0,0,2.035-.505,1.9,1.9,0,0,0,.448-2.342,2.525,2.525,0,0,0-.62-.69,6.148,6.148,0,0,0-.936-.6q-.541-.286-1.165-.6-.659-.334-1.23-.677a5.332,5.332,0,0,1-.993-.756,3.153,3.153,0,0,1-.664-.936,2.9,2.9,0,0,1-.242-1.226,2.883,2.883,0,0,1,.378-1.5A3.242,3.242,0,0,1,130.139,7a4.5,4.5,0,0,1,1.4-.615,6.419,6.419,0,0,1,1.6-.2,6.147,6.147,0,0,1,2.716.448V8.295A4.923,4.923,0,0,0,133,7.521a4.712,4.712,0,0,0-.967.1,2.731,2.731,0,0,0-.861.33,1.908,1.908,0,0,0-.615.589,1.563,1.563,0,0,0-.237.879,1.809,1.809,0,0,0,.18.835,2.046,2.046,0,0,0,.532.642,5.3,5.3,0,0,0,.857.563q.505.272,1.165.6.677.334,1.283.7a5.865,5.865,0,0,1,1.063.817,3.632,3.632,0,0,1,.725.993,2.792,2.792,0,0,1,.268,1.248,3.165,3.165,0,0,1-.365,1.578,2.993,2.993,0,0,1-.984,1.05,4.3,4.3,0,0,1-1.428.584,7.822,7.822,0,0,1-1.705.18,6.948,6.948,0,0,1-.738-.048q-.439-.048-.9-.141a7.315,7.315,0,0,1-.866-.229A2.694,2.694,0,0,1,128.75,18.49Zm9.563,0V16.75a3.38,3.38,0,0,0,.716.475,5.8,5.8,0,0,0,.879.356,7,7,0,0,0,.927.224,5.17,5.17,0,0,0,.861.079,3.374,3.374,0,0,0,2.035-.505,1.9,1.9,0,0,0,.448-2.342,2.525,2.525,0,0,0-.62-.69,6.148,6.148,0,0,0-.936-.6q-.541-.286-1.165-.6-.659-.334-1.23-.677a5.332,5.332,0,0,1-.993-.756,3.153,3.153,0,0,1-.664-.936,2.9,2.9,0,0,1-.242-1.226,2.883,2.883,0,0,1,.378-1.5A3.242,3.242,0,0,1,139.7,7a4.5,4.5,0,0,1,1.4-.615,6.419,6.419,0,0,1,1.6-.2,6.147,6.147,0,0,1,2.716.448V8.295a4.923,4.923,0,0,0-2.865-.773,4.712,4.712,0,0,0-.967.1,2.731,2.731,0,0,0-.861.33,1.908,1.908,0,0,0-.615.589,1.563,1.563,0,0,0-.237.879,1.809,1.809,0,0,0,.18.835,2.046,2.046,0,0,0,.532.642,5.3,5.3,0,0,0,.857.563q.505.272,1.165.6.677.334,1.283.7a5.865,5.865,0,0,1,1.063.817,3.632,3.632,0,0,1,.725.993,2.792,2.792,0,0,1,.268,1.248,3.165,3.165,0,0,1-.365,1.578,2.993,2.993,0,0,1-.984,1.05,4.3,4.3,0,0,1-1.428.584,7.822,7.822,0,0,1-1.705.18,6.948,6.948,0,0,1-.738-.048q-.439-.048-.9-.141a7.315,7.315,0,0,1-.866-.229A2.694,2.694,0,0,1,138.313,18.49ZM155,19h-6.539V6.4h1.477V17.664H155Z" transform="translate(823 2499)" fill="#12263f"/>
    <path id="Trazado_1277675" data-name="Trazado 1277675" d="M43.835,19H42.358V13.252H35.837V19H34.36V6.4h1.477v5.528h6.521V6.4h1.477ZM54.593,7.732H50.954V19H49.478V7.732h-3.63V6.4h8.745Zm9.782,0H60.736V19H59.26V7.732H55.63V6.4h8.745Zm3.454,6.5V19H66.353V6.4h3.463a4.571,4.571,0,0,1,3.133.984,3.515,3.515,0,0,1,1.112,2.777,3.82,3.82,0,0,1-1.235,2.936,4.718,4.718,0,0,1-3.335,1.143Zm0-6.5V12.9h1.547a3.458,3.458,0,0,0,2.333-.7,2.474,2.474,0,0,0,.8-1.973q0-2.5-2.953-2.5ZM86.857,6.4l-6.047,14.7H79.466L85.5,6.4ZM102.783,19h-1.477V13.252H94.785V19H93.309V6.4h1.477v5.528h6.521V6.4h1.477ZM113.541,7.732H109.9V19h-1.477V7.732H104.8V6.4h8.745Zm9.782,0h-3.639V19h-1.477V7.732h-3.63V6.4h8.745Zm3.454,6.5V19H125.3V6.4h3.463a4.571,4.571,0,0,1,3.133.984,3.515,3.515,0,0,1,1.112,2.777,3.82,3.82,0,0,1-1.235,2.936,4.718,4.718,0,0,1-3.335,1.143Zm0-6.5V12.9h1.547a3.458,3.458,0,0,0,2.333-.7,2.474,2.474,0,0,0,.8-1.973q0-2.5-2.953-2.5Zm8.016,10.758V16.75a3.38,3.38,0,0,0,.716.475,5.8,5.8,0,0,0,.879.356,7,7,0,0,0,.927.224,5.17,5.17,0,0,0,.861.079,3.374,3.374,0,0,0,2.035-.505,1.9,1.9,0,0,0,.448-2.342,2.525,2.525,0,0,0-.62-.69,6.148,6.148,0,0,0-.936-.6q-.541-.286-1.165-.6-.659-.334-1.23-.677a5.332,5.332,0,0,1-.993-.756,3.153,3.153,0,0,1-.664-.936,2.9,2.9,0,0,1-.242-1.226,2.883,2.883,0,0,1,.378-1.5A3.242,3.242,0,0,1,136.182,7a4.5,4.5,0,0,1,1.4-.615,6.419,6.419,0,0,1,1.6-.2,6.147,6.147,0,0,1,2.716.448V8.295a4.923,4.923,0,0,0-2.865-.773,4.712,4.712,0,0,0-.967.1,2.731,2.731,0,0,0-.861.33,1.908,1.908,0,0,0-.615.589,1.563,1.563,0,0,0-.237.879,1.809,1.809,0,0,0,.18.835,2.046,2.046,0,0,0,.532.642,5.3,5.3,0,0,0,.857.563q.505.272,1.165.6.677.334,1.283.7a5.865,5.865,0,0,1,1.063.817,3.632,3.632,0,0,1,.725.993,2.792,2.792,0,0,1,.268,1.248,3.165,3.165,0,0,1-.365,1.578,2.993,2.993,0,0,1-.984,1.05,4.3,4.3,0,0,1-1.428.584,7.822,7.822,0,0,1-1.705.18,6.948,6.948,0,0,1-.738-.048q-.439-.048-.9-.141a7.315,7.315,0,0,1-.866-.229A2.694,2.694,0,0,1,134.793,18.49Z" transform="translate(600 2499)" fill="#12263f"/>
    <g id="hombre" transform="translate(699.092 2320.944)">
      <path id="Trazado_1277454" data-name="Trazado 1277454" d="M125.767,64.629v6.116a1.239,1.239,0,0,1-1.239,1.239H79.289a1.239,1.239,0,0,1-1.239-1.239V64.629A11.607,11.607,0,0,1,89.666,53.111a6.414,6.414,0,0,0,5.17-2.694l.1.034-.07-.077c-.008.011-.015.022-.025.033a7.19,7.19,0,0,0,1.179-4.758l.023-.057a15.339,15.339,0,0,1-9.474-14.176V30.93a3.821,3.821,0,0,1-3.873-3.8v-7.74a19.288,19.288,0,0,1,38.576,0V26.9a4.028,4.028,0,0,1-4.028,4.028v.485a15.339,15.339,0,0,1-9.474,14.176l.023.057a7.186,7.186,0,0,0,1.179,4.758c-.009-.011-.017-.022-.025-.033l-.07.077.1-.034a6.413,6.413,0,0,0,5.17,2.694,11.607,11.607,0,0,1,11.616,11.519Z" transform="translate(0 -0.084)" fill="#c79a83"/>
      <path id="Trazado_1277455" data-name="Trazado 1277455" d="M146.626,19.388V26.9A4.028,4.028,0,0,1,142.6,30.93V21.36a7.436,7.436,0,0,0-7.436-7.436h-15.8a7.436,7.436,0,0,0-7.436,7.436v9.57a3.821,3.821,0,0,1-3.873-3.8v-7.74a19.288,19.288,0,1,1,38.576,0Z" transform="translate(-25.352 -0.084)" fill="#42434d"/>
      <path id="Trazado_1277456" data-name="Trazado 1277456" d="M163.725,106.821a15.338,15.338,0,0,1-30.675,0V96.766a7.436,7.436,0,0,1,7.436-7.436h15.8a7.436,7.436,0,0,1,7.436,7.436Z" transform="translate(-46.479 -75.49)" fill="#e0b7a3"/>
      <path id="Trazado_1277457" data-name="Trazado 1277457" d="M114.151,327.337a6.416,6.416,0,0,1-5.2-2.738l-6.12,6.8a1.241,1.241,0,0,1-1.844,0l-6.12-6.8a6.416,6.416,0,0,1-5.2,2.738A11.607,11.607,0,0,0,78.05,338.856v6.116a1.239,1.239,0,0,0,1.239,1.239h45.238a1.239,1.239,0,0,0,1.239-1.239v-6.116a11.607,11.607,0,0,0-11.616-11.519Z" transform="translate(0 -274.311)" fill="#d6f4fc"/>
      <g id="Grupo_1213428" data-name="Grupo 1213428" transform="translate(94.836 50.289)">
        <path id="Trazado_1277458" data-name="Trazado 1277458" d="M186.5,324.677l-.1-.034a.025.025,0,0,0,.006-.011c.009-.011.017-.022.025-.033Z" transform="translate(-186.4 -324.6)" fill="#c79a83"/>
        <path id="Trazado_1277459" data-name="Trazado 1277459" d="M277.151,324.643l-.1.034.07-.077c.008.011.016.022.025.033a.025.025,0,0,0,.006.011Z" transform="translate(-263.006 -324.6)" fill="#c79a83"/>
        <path id="Trazado_1277460" data-name="Trazado 1277460" d="M186.431,324.6c-.008.011-.015.022-.025.033a.025.025,0,0,1-.006.011l.1.034Zm14.107.033c-.009-.011-.017-.022-.025-.033l-.07.077.1-.034a.025.025,0,0,1-.006-.011Z" transform="translate(-186.4 -324.6)" fill="#c79a83"/>
      </g>
      <path id="Trazado_1277461" data-name="Trazado 1277461" d="M254.558,326.819c-.019.041-1.548,7-1.539,6.953a1.14,1.14,0,0,1-1.975.5c-4.068-4.684-3.513-4.073-3.925-4.445l4.707-5.23A6.437,6.437,0,0,0,254.558,326.819Z" transform="translate(-142.877 -274.31)" fill="#e8f8fc"/>
      <path id="Trazado_1277462" data-name="Trazado 1277462" d="M171.7,324.6l4.6,5.106-3.812,4.517a1.14,1.14,0,0,1-1.985-.49c-.01-.044-1.511-6.872-1.53-6.913a6.437,6.437,0,0,0,2.731-2.22Z" transform="translate(-76.834 -274.311)" fill="#e8f8fc"/>
      <path id="Trazado_1277463" data-name="Trazado 1277463" d="M157.093,340.389v17.916H123.44V340.393c3.61-1.539,4.672-.457,7.06-1.483l1.49,6.763a1.239,1.239,0,0,0,2.146.546l3.763-4.333,1.446,1.607a1.239,1.239,0,0,0,1.843,0l1.446-1.607,3.763,4.333a1.239,1.239,0,0,0,2.146-.546l1.49-6.763C152.434,339.941,153.486,338.852,157.093,340.389Z" transform="translate(-38.358 -286.404)" fill="#ffaa64"/>
      <path id="Trazado_1277464" data-name="Trazado 1277464" d="M92.941,342.558A11.554,11.554,0,0,0,81.923,354.1v4.223H79.289a1.239,1.239,0,0,1-1.239-1.239v-6.107a11.619,11.619,0,0,1,11.62-11.529,6.419,6.419,0,0,0,2.465-.517C92.155,338.971,92.932,342.514,92.941,342.558Z" transform="translate(0 -286.421)" fill="#e8f8fc"/>
      <path id="Trazado_1277465" data-name="Trazado 1277465" d="M171.8,331.107l.686,3.116a1.14,1.14,0,0,1-1.985-.489c-.6-2.705-1.517-6.886-1.53-6.913a6.438,6.438,0,0,0,2.731-2.22l1.323,1.472A5.981,5.981,0,0,0,171.8,331.107Z" transform="translate(-76.835 -274.311)" fill="#f1fafc"/>
      <path id="Trazado_1277466" data-name="Trazado 1277466" d="M131.3,342.558a11.519,11.519,0,0,0-7.859,3.6V340.41c3.448-1.478,4.764-.487,7.054-1.48C130.509,338.965,131.3,342.546,131.3,342.558Z" transform="translate(-38.358 -286.421)" fill="#ffbd7b"/>
      <path id="Trazado_1277467" data-name="Trazado 1277467" d="M289.93,342.558a11.554,11.554,0,0,1,11.018,11.54v4.223h2.634a1.239,1.239,0,0,0,1.239-1.239v-6.107a11.619,11.619,0,0,0-11.62-11.529,6.419,6.419,0,0,1-2.465-.517C290.716,338.971,289.94,342.514,289.93,342.558Z" transform="translate(-179.055 -286.421)" fill="#bdeffc"/>
      <path id="Trazado_1277468" data-name="Trazado 1277468" d="M289.93,342.558a11.519,11.519,0,0,1,7.859,3.6V340.41c-3.448-1.478-4.764-.487-7.054-1.48C290.72,338.965,289.93,342.546,289.93,342.558Z" transform="translate(-179.055 -286.421)" fill="#faa157"/>
      <path id="Trazado_1277469" data-name="Trazado 1277469" d="M203.55,217.6a1.2,1.2,0,0,1,.4,2.058,4.476,4.476,0,0,1-5.171.366,1.212,1.212,0,0,0-1.21,0,4.476,4.476,0,0,1-5.171-.366,1.2,1.2,0,0,1,.4-2.058c1.489-.512,1.75-1.58,2.9-1.885a2.869,2.869,0,0,1,1.972.262,1.2,1.2,0,0,0,1,0,2.87,2.87,0,0,1,1.972-.262C201.8,216.017,202.062,217.085,203.55,217.6Z" transform="translate(-96.266 -182.229)" fill="#42434d"/>
      <path id="Trazado_1277470" data-name="Trazado 1277470" d="M205.044,296.331a15.38,15.38,0,0,1-12.124,0,9.6,9.6,0,0,0,.175-2.544l.023-.057a15.369,15.369,0,0,0,11.728,0l.023.057A9.6,9.6,0,0,0,205.044,296.331Z" transform="translate(-97.074 -248.223)" fill="#a07765"/>
      <path id="Trazado_1277471" data-name="Trazado 1277471" d="M142.077,127.626c2.427,2.466-1.01,6.253-3.655,4.022a15.024,15.024,0,0,1-5.372-11.654V109.94a7.516,7.516,0,0,1,1.313-4.23,1.834,1.834,0,0,1,3.335,1.086c0,.038,0,10.063,0,10.1A15.181,15.181,0,0,0,142.077,127.626Z" transform="translate(-46.479 -88.663)" fill="#f2d1c2"/>
      <path id="Trazado_1277472" data-name="Trazado 1277472" d="M132.455,4.668A19.283,19.283,0,0,0,114.792,15.2a1.931,1.931,0,0,1-.421.56,7.413,7.413,0,0,0-2.45,5.516V27.09a1.937,1.937,0,0,1-3.868.147c-.008-.15,0-7.893,0-7.744A19.358,19.358,0,0,1,133.054.879a1.937,1.937,0,0,1-.6,3.789Z" transform="translate(-25.35 0)" fill="#4d4e59"/>
    </g>
    <path id="Trazado_1277473" data-name="Trazado 1277473" d="M0,0,207.163,207.163H0Z" transform="translate(290 2600)" fill="#f3f9ff"/>
    <g id="Grupo_1213427" data-name="Grupo 1213427" transform="translate(5783.978 16370.066)">
      <path id="Trazado_1276908" data-name="Trazado 1276908" d="M1056.629,1537.466c0,11.876-45.93,21.5-102.587,21.5s-102.591-9.627-102.591-21.5,45.931-21.5,102.591-21.5,102.587,9.626,102.587,21.5" transform="translate(-6336.121 -15128.209)" fill="#0082ca" opacity="0.16"/>
      <path id="Trazado_1277084" data-name="Trazado 1277084" d="M955.05,962.53c-8.45,1.912-17.446,6.838-21.921,14.471-7.72,13.163-8.347,31.5-6.239,45.952,1.643,11.255,5.41,26.654,13.02,35.585,8.465,9.935,27.27,5.78,38.093,4.1,12.492-1.938,22.045-2.871,28.853-14.646,6.836-11.826,8.371-29.471,9.39-43.245.678-9.11.121-19.129-3.89-27.582-10.83-22.81-36.66-19.31-57.3-14.636" transform="translate(-6390.477 -14721.35)" fill="#e8cd91"/>
      <path id="Trazado_1277085" data-name="Trazado 1277085" d="M1035.225,1414.4h8.528l-22.1,58.414a4.588,4.588,0,0,1-3.7,1.485s-2.662.277-1.489-1.684Z" transform="translate(-6456.464 -15054.009)" fill="#7e321d"/>
      <g id="Grupo_1213246" data-name="Grupo 1213246" transform="translate(-5440.29 -13639.605)" style="mix-blend-mode: multiply;isolation: isolate">
        <g id="Grupo_1213245" data-name="Grupo 1213245" transform="translate(0 0)">
          <g id="Grupo_1213244" data-name="Grupo 1213244" clip-path="url(#clip-path)">
            <path id="Trazado_1277086" data-name="Trazado 1277086" d="M1043.775,1414.4l-22.1,58.414a4.588,4.588,0,0,1-3.7,1.485s-2.179.22-1.714-1.2a1.671,1.671,0,0,0,.69.455,3.481,3.481,0,0,0,3.263-.724l19.823-58.434Z" transform="translate(-1016.197 -1414.403)" fill="#a6a5a5"/>
          </g>
        </g>
      </g>
      <path id="Trazado_1277087" data-name="Trazado 1277087" d="M952.567,1361.633H961.1l-22.1,58.413a4.587,4.587,0,0,1-3.7,1.486s-2.661.276-1.488-1.684Z" transform="translate(-6396.074 -15015.454)" fill="#7e321d"/>
      <g id="Grupo_1213249" data-name="Grupo 1213249" transform="translate(-5462.558 -13653.82)" style="mix-blend-mode: multiply;isolation: isolate">
        <g id="Grupo_1213248" data-name="Grupo 1213248" transform="translate(0 0)">
          <g id="Grupo_1213247" data-name="Grupo 1213247" clip-path="url(#clip-path-2)">
            <path id="Trazado_1277088" data-name="Trazado 1277088" d="M961.116,1361.633l-22.1,58.413a4.587,4.587,0,0,1-3.7,1.486s-2.178.221-1.714-1.2a1.656,1.656,0,0,0,.69.454,3.478,3.478,0,0,0,3.263-.723l19.823-58.434Z" transform="translate(-933.536 -1361.633)" fill="#a6a5a5"/>
          </g>
        </g>
      </g>
      <path id="Trazado_1277089" data-name="Trazado 1277089" d="M1349.739,1388.563h-8.532l22.106,58.414a4.577,4.577,0,0,0,3.7,1.484s2.664.277,1.491-1.684Z" transform="translate(-6693.943 -15035.129)" fill="#7e321d"/>
      <g id="Grupo_1213252" data-name="Grupo 1213252" transform="translate(-5352.735 -13646.566)" style="mix-blend-mode: multiply;isolation: isolate">
        <g id="Grupo_1213251" data-name="Grupo 1213251" transform="translate(0 0)">
          <g id="Grupo_1213250" data-name="Grupo 1213250" clip-path="url(#clip-path-3)">
            <path id="Trazado_1277090" data-name="Trazado 1277090" d="M1341.207,1388.563l22.106,58.414a4.577,4.577,0,0,0,3.7,1.484s2.178.22,1.714-1.2a1.652,1.652,0,0,1-.688.455,3.48,3.48,0,0,1-3.265-.725l-19.823-58.432Z" transform="translate(-1341.208 -1388.563)" fill="#a6a5a5"/>
          </g>
        </g>
      </g>
      <path id="Trazado_1277091" data-name="Trazado 1277091" d="M1243.257,1361.633h-8.531l22.1,58.413a4.58,4.58,0,0,0,3.7,1.486s2.661.276,1.488-1.684Z" transform="translate(-6616.147 -15015.454)" fill="#7e321d"/>
      <g id="Grupo_1213255" data-name="Grupo 1213255" transform="translate(-5381.42 -13653.82)" style="mix-blend-mode: multiply;isolation: isolate">
        <g id="Grupo_1213254" data-name="Grupo 1213254" transform="translate(0 0)">
          <g id="Grupo_1213253" data-name="Grupo 1213253" clip-path="url(#clip-path-3)">
            <path id="Trazado_1277092" data-name="Trazado 1277092" d="M1234.727,1361.633l22.1,58.413a4.58,4.58,0,0,0,3.7,1.486s2.178.221,1.711-1.2a1.627,1.627,0,0,1-.689.454,3.474,3.474,0,0,1-3.262-.723l-19.826-58.434Z" transform="translate(-1234.728 -1361.633)" fill="#a6a5a5"/>
          </g>
        </g>
      </g>
      <path id="Trazado_1277093" data-name="Trazado 1277093" d="M961.438,1265.841c9.859-1.461,19.582-3.616,29.457-5.187,12.859-2.048,31.331-6.21,44.351-4.075,8.455,1.388,15.731,4.979,22.621,8.4,7.747,3.841,14.945,7.888,16.025,15.03,1.024,6.754-2.942,11.734-10.755,15.422-18.2,8.594-44.994,12.434-66.6,13.416-16.805.762-36.844-2.566-48.784-11.538-6.9-5.185-8.61-13.875-6.8-20.626,2.2-8.23,9.6-9.225,20.485-10.84" transform="translate(-6401.022 -14938.268)" fill="#44b2ba"/>
      <path id="Trazado_1277094" data-name="Trazado 1277094" d="M961.438,1265.841c9.859-1.461,19.582-3.616,29.457-5.187,12.859-2.048,31.331-6.21,44.351-4.075,8.455,1.388,15.731,4.979,22.621,8.4,7.747,3.841,14.945,7.888,16.025,15.03,1.024,6.754-2.942,11.734-10.755,15.422-18.2,8.594-44.994,12.434-66.6,13.416-16.805.762-36.844-2.566-48.784-11.538-6.9-5.185-8.61-13.875-6.8-20.626,2.2-8.23,9.6-9.225,20.485-10.84" transform="translate(-6401.022 -14938.268)" fill="#e8cd91"/>
      <path id="Trazado_1277095" data-name="Trazado 1277095" d="M1551.665,1338.338l16.605-1.048,1.229-5.966-18.265-4.257Z" transform="translate(-6847.392 -14990.199)" fill="#f5a58e"/>
      <path id="Trazado_1277096" data-name="Trazado 1277096" d="M1607.156,1312.4l6.906,4.8,13.925-23.2s-.4-1.278-3.515-1.07l-11.759,9.67-6.707,2.95a3.131,3.131,0,0,0,2.079,3Z" transform="translate(-6887.404 -14965.236)" fill="#00a4b6"/>
      <path id="Trazado_1277097" data-name="Trazado 1277097" d="M1645.74,1293.848c.919.322,1.081.838,1.081.838l-13.925,23.2-1.119-.777Z" transform="translate(-6906.237 -14965.93)" fill="#007a92"/>
      <path id="Trazado_1277098" data-name="Trazado 1277098" d="M1634.5,1324.827c.454.188.662.757.906,1.151a4.459,4.459,0,0,1,.648,1.367c-.1-.063-.207-.126-.311-.187l0,0c-.116.091-.231.185-.349.277.1-.143.352-.395.555-.267.257.16.039.635-.068.814-.069.109-.623.759-.757.372a9.579,9.579,0,0,0-.65-1.436,2.532,2.532,0,0,1-.449-1.573c.019-.178.228-.618.473-.516" transform="translate(-6907.874 -14988.552)" fill="#fff"/>
      <path id="Trazado_1277099" data-name="Trazado 1277099" d="M1643.79,1318.12a6.86,6.86,0,0,1,.719.677,2.977,2.977,0,0,1,.675,1.374c.024.275-.39,1.288-.8,1.012a2.78,2.78,0,0,1-.7-1.183,9.273,9.273,0,0,1-.367-1.274c-.04-.156.283-.8.483-.606" transform="translate(-6914.659 -14983.637)" fill="#fff"/>
      <path id="Trazado_1277100" data-name="Trazado 1277100" d="M1652.353,1310.183a3.745,3.745,0,0,1,1.667,2c.165.409-.622,1.584-.882,1.1a10.819,10.819,0,0,1-1.242-2.528c-.044-.188.218-.68.457-.573" transform="translate(-6920.934 -14977.853)" fill="#fff"/>
      <path id="Trazado_1277101" data-name="Trazado 1277101" d="M1343.237,1316.155c-1.034,1.483-5.822,1.986-7.567,2.156a35.1,35.1,0,0,1-8.516-.123c-5.617-.817-10.841-.456-16.505-.05-5.459.39-10.867,1.677-16.369,1.854a103.628,103.628,0,0,1-15.148-.391c-4.985-.581-9.681-2.547-14.645-3.058-2.57-.265-1.384-1.4-.838-3.792a11.456,11.456,0,0,1,.5-1.75c1.184-4.106,2.578-8.373,5.607-11.527a9.2,9.2,0,0,1,5.888-3.008l70.289,8.269a16.2,16.2,0,0,1-2.7,11.421" transform="translate(-6636.728 -14967.842)" fill="#0e446e"/>
      <path id="Trazado_1277102" data-name="Trazado 1277102" d="M1109.725,1292.239l10-19.9-46.288-9.136-23.32,1.01-1.142,31.277s23.4,2.271,60.752-3.248" transform="translate(-6480.434 -14943.537)" fill="#0e446e"/>
      <path id="Trazado_1277103" data-name="Trazado 1277103" d="M1343.016,1368.578a9.28,9.28,0,0,0-1.438.3c-.171.06-.343.116-.516.167-.1.031-.208.059-.313.085l-.16.038q-.175.039.136-.029a1.611,1.611,0,0,1-.578.078,1.818,1.818,0,0,0-.293.035c.339-.1.355-.017.183-.017a8.428,8.428,0,0,0-1.812.215c-.2.042-.4.077-.592.127.484-.124-.127.006-.26.018a10.385,10.385,0,0,0-1.625.236c-.412.1.311-.048.04-.006-.1.016-.208.037-.312.052-.21.032-.421.056-.632.075l-.127.011q-.329.025.148-.009a1.137,1.137,0,0,0-.256.012c-.258.01-.516.015-.774.016-.559,0-1.112,0-1.67.054-.41.039.419-.022.135-.007l-.3.016c-.244.011-.489.018-.733.023-.424.009-.847.01-1.271.009l-.647,0c-.106,0-.212,0-.318-.006q-.245-.011.238.015-.125-.012-.249-.028c-.874-.111-1.724-.356-2.6-.436-.353-.032-.706-.047-1.059-.059-.08,0-.161-.01-.24-.01.652.007.231.016.079,0-.436-.039-.87-.1-1.3-.165a27.251,27.251,0,0,0-5.372-.55c-1.042.047-2.086.159-3.124.262-.9.09-1.813.165-2.711.3-.882.132-1.761.267-2.651.335s-1.781.172-2.669.284c-1.668.209-3.332.461-5.006.621-.46.044-.919.067-1.374.148-.572.1-1.139.23-1.706.359l-.357.081c-.1.023-.447.152-.04.011a3.633,3.633,0,0,1-.7.116c-.1.012-.193.02-.29.031q-.212.018.192-.013c-.077,0-.153,0-.23,0a6.828,6.828,0,0,0-1.4.239c-.15.037-.161.113.074-.014a1.4,1.4,0,0,1-.4.06c-.253.039.473,0,.107-.014-.072,0-.14,0-.212,0a12.406,12.406,0,0,0-1.257.111c-.3.036-.591.077-.886.116-.111.015-.223.03-.335.043l-.083.01-.065.007a3.357,3.357,0,0,1,.894,0l.8.228,0,0,.467.865,0,0-.467.392c-.485.234-.423.149-.256.106l-.916.121c.833-.039,2.2.083,2.692-.7a.464.464,0,0,0,0-.473c-.659-.888-2.437-.664-3.459-.677q-2.429-.031-4.857-.133-1.622-.069-3.242-.171c-.161-.01-.691-.047-.009,0l-.419-.029q-.469-.032-.937-.068-.922-.07-1.843-.153c-2.6-.234-5.189-.542-7.762-.967q-1.119-.185-2.234-.392-.531-.1-1.061-.2l-.229-.046c-.321-.065.419.088.02,0l-.5-.108q-1.075-.236-2.141-.514a17.779,17.779,0,0,0-2.465-.481,2.176,2.176,0,0,0-1.435.24c-.242.169-.449.52-.107.743.246.16.489.335.747.475l.338.128.158.06.162.056c.164.056.328.112.494.163.6.183,1.211.34,1.821.494,1.371.345,2.756.65,4.147.9,2.555.466,5.136.8,7.72,1.053,4.254.422,8.53.646,12.8.716q.907.015,1.815.021c.167,0,.334,0,.5,0,.05,0,.1,0,.15,0,.015,0,.03,0,.045,0a2.989,2.989,0,0,1-1.254-.257l-.467-.392h0v-.473h0l.467-.393a2.366,2.366,0,0,1,1.164-.249l-.254.014c-.842.043-1.861-.009-2.43.717-.277.353.209.733.466.865a5.414,5.414,0,0,0,3.13.06c.175-.022.35-.043.526-.061.089-.009.178-.013.266-.025-.675.087-.305.026-.105.026a10.137,10.137,0,0,0,2.428-.4l-.912.121a14.268,14.268,0,0,0,2.894-.392l.478-.106c.092-.02.756-.183.294-.068a7.016,7.016,0,0,1,1.159-.17c1.466-.112,2.923-.308,4.38-.5.76-.1,1.521-.195,2.284-.279q.577-.064,1.156-.117c.193-.018.387-.032.58-.046l.319-.025.128-.01q.309-.025-.107.009c.072-.058.414-.017.515-.022l.581-.028c.551-.028,1.1-.05,1.652-.1.823-.067,1.644-.169,2.466-.249.77-.075,1.542-.148,2.314-.2-.7.047.054.016.2.017.163,0,.333.029.494.017-.539.041-.309-.022-.128-.006l.3.029c.2.021.4.046.6.073,1.611.221,3.188.558,4.819.626.082,0,.164.005.246.006.441.006-.414-.048-.12-.01.187.024.374.044.56.073.4.063.788.141,1.182.212a14.709,14.709,0,0,0,2.761.2c.791-.007,1.581-.022,2.37-.072.3-.019.592-.036.887-.062.059-.005.443-.038.077-.01s.053.01.111.01c.388,0,.776-.009,1.163-.026.6-.026,1.206-.061,1.8-.143.209-.029.416-.065.622-.106-.089.018.94-.232.96-.211,0,0-.4.069-.127.031.11-.015.219-.034.33-.049.261-.037.519-.078.778-.132a13.889,13.889,0,0,0,1.347-.35c.334-.1-.159.041-.161.024s.272-.03.282-.031c.16-.014.319-.024.478-.047s.756-.072.394-.077c-.275,0,.1-.011.175-.026.3-.058.6-.117.887-.2a10.814,10.814,0,0,0,1.209-.443,3.874,3.874,0,0,0,1-.678c.273-.231.17-.519-.1-.7a2,2,0,0,0-1.346-.225" transform="translate(-6637.356 -15020.481)" fill="#0b3250"/>
      <path id="Trazado_1277104" data-name="Trazado 1277104" d="M1155.175,1372.282a3.537,3.537,0,0,0,2.876.9,28.721,28.721,0,0,0,3.3-.39c2.437-.381,4.922-.536,7.38-.712l.925-.064a1.444,1.444,0,0,0,.264-.017c-.007,0-.338.022-.134.009l.6-.038q.994-.063,1.989-.123c.912-.053,1.829-.045,2.743-.046,1.9,0,3.8,0,5.7-.15q1.666-.128,3.318-.375a7.564,7.564,0,0,0,2.441-.612,2.734,2.734,0,0,0,.462-.3c.034-.028.069-.057.1-.087-.072.066-.095.051.008,0a2.22,2.22,0,0,0,.771-.466c.283-.318-.178-.484-.439-.529a5.506,5.506,0,0,0-.969-.057h-.251c-.036,0-.22-.027-.055,0s0-.008-.03-.014c-.082-.016-.166-.027-.248-.037a8.643,8.643,0,0,0-2.438.1q-1.477.228-2.967.364-.328.029-.657.055l-.322.023c-.246.018.519-.033.273-.017l-.18.011q-.311.019-.623.034c-.256.013-.511.03-.766.047l.284-.018c-.058,0-.116.008-.174.011-.831.052-1.663.088-2.5.125-.879.038-1.759.078-2.637.134l-.711.047c-.032,0,.438-.025.239-.016l-.144.008c-.455.026-.909.061-1.364.094q-.957.069-1.915.142c-2.491.191-4.976.418-7.447.8-1.071.165-2.126.413-3.2.581-.268.042-.536.078-.805.1a1.379,1.379,0,0,0-.2.017c.076-.02.269-.013.079-.006-.129,0-.257,0-.385.006a6.06,6.06,0,0,0-.7.093s.324-.052.042-.023c-.136.014.11,0,.108,0a.84.84,0,0,1-.217.005c-.042,0-.084,0-.126,0-.021,0-.242,0-.125,0s-.038,0-.049-.005c-.084-.012-.166-.023-.249-.039-.132-.025-1.175.081-.878.43" transform="translate(-6557.988 -15020.934)" fill="#0b3250"/>
      <path id="Trazado_1277105" data-name="Trazado 1277105" d="M1057.211,984.738l-13.466.282-.307-14.7,13.463-.282s-1.195,11.608.31,14.7" transform="translate(-6476.389 -14729.354)" fill="#f5a58e"/>
      <path id="Trazado_1277106" data-name="Trazado 1277106" d="M1056.523,981.046a43.369,43.369,0,0,1-8.956-1.245,17.835,17.835,0,0,1-3.966-1.648l-.163-7.828,13.463-.282a83.213,83.213,0,0,0-.378,11" transform="translate(-6476.39 -14729.354)" fill="#ee7d6c"/>
      <path id="Trazado_1277107" data-name="Trazado 1277107" d="M1100.125,912.2a25.489,25.489,0,0,1-3.2,6.486c-1.69,2.139-4.17,2.29-5.312-.379a14.918,14.918,0,0,1-.578-8.2,5.992,5.992,0,0,1,2.05-3.968,4.679,4.679,0,0,1,6.307.742,4.794,4.794,0,0,1,.732,5.318" transform="translate(-6510.941 -14682.008)" fill="#a44622"/>
      <path id="Trazado_1277108" data-name="Trazado 1277108" d="M1057.516,902.951a36.849,36.849,0,0,1-1.2,7.6c-.688,2.516-1.625,7.232-4.465,8.285a5.77,5.77,0,0,1-2.6.236c-3.866-.241-7.988-2.814-10.447-5.686-4.583-5.351-4.57-18.333.021-23.367,4.195-4.593,17.527-2.228,18.422,5.1a44.632,44.632,0,0,1,.27,7.834" transform="translate(-6470.498 -14669.17)" fill="#f5a58e"/>
      <path id="Trazado_1277109" data-name="Trazado 1277109" d="M1054.628,947.442a8.858,8.858,0,0,1-1.149.483,6.223,6.223,0,0,1-3.307-.158c-1.588-.441-3.166-1.424-4.846-.857a7.68,7.68,0,0,1-2.956.519,3.658,3.658,0,0,1-3.095-2.2,22.913,22.913,0,0,0-1.042-3.039,5.255,5.255,0,0,0-2.854-2.216c.026,4.488,1.166,8.989,3.428,11.63,2.459,2.872,6.581,5.444,10.447,5.685a5.77,5.77,0,0,0,2.6-.236c2.84-1.052,3.776-5.769,4.465-8.285.157-.576.293-1.156.417-1.738a3.654,3.654,0,0,0-2.113.416" transform="translate(-6470.501 -14707.381)" fill="#e69076"/>
      <path id="Trazado_1277110" data-name="Trazado 1277110" d="M1038.822,891.279a7.022,7.022,0,0,1,3.279-1.888c-.9,4.79-4.751,8-3.518,14.968-.251,4.08-.748,5.466-.95,8.6-3.373-6.023-2.974-17.114,1.189-21.676" transform="translate(-6470.496 -14670.428)" fill="#cf846c"/>
      <path id="Trazado_1277111" data-name="Trazado 1277111" d="M1031.386,931.617c.007-.009.166-.217.141-.168a.34.34,0,0,0,.011-.255,2.693,2.693,0,0,0-.093-.424,2.5,2.5,0,0,0-.321-.637,2.979,2.979,0,0,0-1.23-1.036,2.847,2.847,0,0,0-1.439-.237,2.992,2.992,0,0,0-.7.178c.391-.138-.241.09-.222.082-.2.082-.491.294-.494.544a.248.248,0,0,0,.045.139c.02.041.027.03.023-.034.022-.069.011-.077-.033-.023a.229.229,0,0,0-.052.312v-.112a4.669,4.669,0,0,0-.252.645,4.97,4.97,0,0,0-.2.7,3.914,3.914,0,0,0-.117.737,1.871,1.871,0,0,0,.072.756c.025.055.16.045.188,0a4.011,4.011,0,0,0,.239-.723c.093-.242.179-.484.268-.727a5.448,5.448,0,0,1,.3-.671,4.772,4.772,0,0,1,.332-.6l-.2.126c.095-.028.183-.07.276-.1s-.057,0,.031-.008c.043-.006.087-.007.13-.012l-.938-.187a1.507,1.507,0,0,0,1.317.148c.1-.035-.261.051-.045.009a2.76,2.76,0,0,0,.306-.066l.214-.081-.126.049a.322.322,0,0,0,.077-.023c.042-.012.243-.058.095-.036a1.5,1.5,0,0,1-.452,0,.545.545,0,0,1-.261-.048q-.1-.041-.027-.009c.046.024.1.047.143.068.113.049-.007-.026-.028-.025.029,0,.2.163.144.112s.1.112.118.127.066.053.1.079c.079.061.16.118.236.183s.131.116.192.179c.031.031.061.063.089.1-.057-.065.031.041.04.053a2.085,2.085,0,0,1,.3.5,2.006,2.006,0,0,0,.1.257,1.012,1.012,0,0,0,.5.324,1.076,1.076,0,0,0,1.207-.156" transform="translate(-6463.978 -14699.254)" fill="#f0876c"/>
      <path id="Trazado_1277112" data-name="Trazado 1277112" d="M1026.024,894.063c-.172.642-.305,3.588-.509,4.158s-1.5-.335-1.5-.335c-.911-.962.267-3.13-1.323-3.478-1.73-.381-2.266,2.155-2.305,3.33-1.323-1.4-1.887-4.046-2.15-5.977-.49-3.58-.49-4.852.093-6.424,2.031-5.508,4.115-5.089,7.985-4.548,1.767.248,3.824,2.355,4.47,4.1.693,1.869-.578,3.3-1.858,4.5-1.6,1.5-2.116,1.735-2.9,4.678" transform="translate(-6457.716 -14663.926)" fill="#a44622"/>
      <path id="Trazado_1277113" data-name="Trazado 1277113" d="M1027.51,930.935c-1.809,1.563-1.124,6.551,2.141,8.4.908-.871,1.058-3.379,1.25-4.609a4.8,4.8,0,0,0-.36-3.45,2.166,2.166,0,0,0-3.032-.345" transform="translate(-6464.037 -14700.418)" fill="#f5a58e"/>
      <path id="Trazado_1277114" data-name="Trazado 1277114" d="M1032.816,941.325c-.058.209-.088.424-.144.633l.022-.078c-.022.075-.064.149-.081.225-.02.039-.012.034.025-.014l-.036.027c-.023.016-.049.03-.07.048.112-.1.065-.041.022-.017l-.062.032c-.052.024-.131.036.066-.022l-.048.016c-.054.018-.153.02.108-.021-.068.011-.148,0,.128-.006-.107,0,.22.022.134.01s.214.053.121.025c-.07-.021.181.078.1.037s.117.092.073.047c-.019-.019-.041-.034-.058-.055l.074.086a.929.929,0,0,1-.167-.346l.027.1a3.585,3.585,0,0,1-.094-.973c0-.157.022-.316.018-.473a.853.853,0,0,0-.065-.287.706.706,0,0,0-.439-.317l.272.173c-.025-.033-.049-.066-.075-.1a.581.581,0,0,0-.428-.186.758.758,0,0,0-.5.127c-.029.026-.054.059-.08.088l.212-.1a.666.666,0,0,0-.361.206.514.514,0,0,0-.136.241.8.8,0,0,0-.035.271c0,.065,0,.13.008.2a5.2,5.2,0,0,0,.1.845,1.484,1.484,0,0,0,.367.793,1.153,1.153,0,0,0,.63.272,1.616,1.616,0,0,0,.919-.123,1.4,1.4,0,0,0,.258-.162c.033-.026.065-.054.1-.083a.454.454,0,0,0,.153-.242,1.051,1.051,0,0,0-.028-.415c-.027-.137-.061-.273-.08-.411-.024-.179-.276-.223-.419-.232a.837.837,0,0,0-.308.028c-.068.022-.2.063-.222.141" transform="translate(-6467.552 -14707.322)" fill="#ee7d6c"/>
      <path id="Trazado_1277115" data-name="Trazado 1277115" d="M1030.806,938.937c0-.516-.717-.748-1.121-.755a1.574,1.574,0,0,0-1.453.793,2.335,2.335,0,0,0-.132,1.54,1.7,1.7,0,0,0,.142.4,2.48,2.48,0,0,0,.24.322c.086.106.177.21.271.309a1.036,1.036,0,0,0,.405.247c.171.067.566.111.627-.127a.354.354,0,0,0,.016-.241c-.025-.074-.051-.147-.072-.222a4.6,4.6,0,0,0-.144-.542,2.044,2.044,0,0,1-.111-1.158,1.1,1.1,0,0,1,.4-.756c-.083.051.1-.009-.043.023a.647.647,0,0,1-.186.014c-.036,0-.147-.028-.06,0,.043.015.089.023.132.034a.8.8,0,0,1,.158.049.328.328,0,0,1,.144.12.491.491,0,0,0,.438.14c.105-.008.345-.044.346-.192" transform="translate(-6465.13 -14706.075)" fill="#ee7d6c"/>
      <path id="Trazado_1277116" data-name="Trazado 1277116" d="M1073.287,929.821a2.241,2.241,0,0,0-.375-1.046,2.1,2.1,0,0,0-.36-.508,2.02,2.02,0,0,0-.449-.23,6,6,0,0,0-2.009-.458,2.594,2.594,0,0,0-1,0,2.316,2.316,0,0,0-.424.223c-.105.066-.216.117-.331.175a3.476,3.476,0,0,0-.724.446,1.671,1.671,0,0,0-.3,1.041,3.418,3.418,0,0,0,.058,1.005.7.7,0,0,0,.1.266.131.131,0,0,1,.091.155l.074.045a4.9,4.9,0,0,1,.6-.236,1.373,1.373,0,0,1,.624-.059,1.563,1.563,0,0,0,.351.024c.119-.013.238-.045.358-.062a9.409,9.409,0,0,1,.945-.076,4.907,4.907,0,0,1,1.584.146,1.824,1.824,0,0,0,.373.118,1.051,1.051,0,0,0,.332-.118c.076-.03.264-.129.351-.088.117.054.129-.751.128-.766" transform="translate(-6493.826 -14698.291)" fill="#a44622"/>
      <path id="Trazado_1277117" data-name="Trazado 1277117" d="M1104.551,933.943a.59.59,0,0,1,.114.081c.087.072.164.156.256.222a.825.825,0,0,0,.434.065c.159.011.318.029.476.052a7.909,7.909,0,0,1,1.084.235.459.459,0,0,0,.265-.006.64.64,0,0,1,.283-.024c.092.012.183.026.273.043a1.094,1.094,0,0,0,.11.022.187.187,0,0,0,.162-.049c.082-.058.093-.251.108-.338a3.254,3.254,0,0,0,.044-.572,1.783,1.783,0,0,0-.152-.91l.091.243-.042-.148a.4.4,0,0,0-.118-.174,1.206,1.206,0,0,0-.2-.109c-.135-.067-.274-.127-.414-.184l.063.039c-.091-.058-.173-.127-.267-.184a.518.518,0,0,0-.276-.08c-.16-.01-.321-.015-.481-.014a7.108,7.108,0,0,0-.948.062,2.047,2.047,0,0,0-.373.066c-.139.047-.225.192-.305.309a1.4,1.4,0,0,0-.284.754c-.006.112-.044.53.1.6" transform="translate(-6520.96 -14701.671)" fill="#a44622"/>
      <path id="Trazado_1277118" data-name="Trazado 1277118" d="M1107.353,943.642c-.05.659.194,1.211.543,1.238s.675-.482.724-1.141-.192-1.211-.54-1.236-.678.484-.727,1.14" transform="translate(-6523.082 -14709.231)" fill="#6c3622"/>
      <path id="Trazado_1277119" data-name="Trazado 1277119" d="M1079.756,943.238c-.05.658.195,1.213.544,1.24s.675-.485.727-1.143-.195-1.208-.544-1.235-.675.483-.727,1.139" transform="translate(-6502.919 -14708.937)" fill="#6c3622"/>
      <path id="Trazado_1277120" data-name="Trazado 1277120" d="M1088.757,971.5c-.257.158-.542.252-.8.407-.055.033-.16.092-.237.129-.013.006-.142.064-.089.043a1.311,1.311,0,0,0-.131.044c-.052.016-.1.029-.156.043-.165.046.058,0-.045.01-.122.012-.244.031-.366.043s-.054.012.027,0a1.7,1.7,0,0,1-.206.006,1.347,1.347,0,0,1-.387,0c.034.026.179.021.033,0-.1-.016-.06-.013.017.007-.121-.032-.242-.06-.362-.094s-.086-.068-.028,0c-.036-.042-.064-.046-.005.006-.054-.048-.117-.149-.212-.238-.186-.176-.407-.318-.6-.481-.1-.084-.193-.185-.3-.267a2.055,2.055,0,0,0-.673-.294c-.269-.089-1.007-.114-1.159.231a.45.45,0,0,0,.065.569,3.51,3.51,0,0,0,.362.322c.123.1.249.191.371.288a4.346,4.346,0,0,1,.306.31,2.136,2.136,0,0,0,.954.453,4.975,4.975,0,0,0,1.229.194,5.615,5.615,0,0,0,2.213-.348,3.143,3.143,0,0,0,.776-.449.924.924,0,0,0,.307-.748c.017-.331-.739-.29-.91-.185" transform="translate(-6505.304 -14729.91)" fill="#ec766a"/>
      <path id="Trazado_1277121" data-name="Trazado 1277121" d="M1095.422,942.255c-.105.416-.252.82-.384,1.228a2.162,2.162,0,0,0-.2,1.1,10.374,10.374,0,0,0,.851,1.842,1.151,1.151,0,0,1,.119.721c.019-.087-.023.057-.029.068-.025.049-.052.094-.079.141-.068.118.057-.044-.035.044-.048.046-.1.086-.151.129s-.03.024.044-.023c-.025.016-.051.03-.078.044l-.192.091c.125-.058.083-.029-.023,0-.214.063-.009-.018,0,.007,0,0-.179.027-.187.028-.212.034.226,0,.028,0-.233-.007-.01.046.035.01-.028.023-.194-.027-.23-.034-.362-.07-1.088-.024-1.285.357-.213.412.483.582.729.63a4.24,4.24,0,0,0,2.526-.32,1.58,1.58,0,0,0,1.056-1.494c-.091-.792-.818-1.319-1.214-1.959a1.806,1.806,0,0,1-.266-.575,3.4,3.4,0,0,1,0-.622c.011-.473.042-.946.024-1.419-.015-.383-.979-.342-1.066,0" transform="translate(-6513.034 -14708.852)" fill="#ee7d6c"/>
      <path id="Trazado_1277122" data-name="Trazado 1277122" d="M1043.59,869.961c1.751-.507,3.26,1.726,4.578,2.614,1.425.958,3.134.195,4.6-.073,1.586-.288,2.866.794,4-.658,2.294-2.943,5.654-5.944,3.392-9.911-.953-1.671-1.756-1.949-3.564-1.614s-3.284.065-4.269-1.507c-1.123-1.794-2-2.705-4.232-2.835-1.361-.08-2.789.084-4.16.143-1.914.081-3.2,1.227-4.77,2.183a7.045,7.045,0,0,1-4.029,1.03,2.851,2.851,0,0,0-2.853,1.286,4.386,4.386,0,0,0,.094,5.615,6.8,6.8,0,0,0,2.334,1.5,4.882,4.882,0,0,1,2.171,1.167c.554.63.743,1.288,1.591,1.66,1.614.707,3.548-.149,5.115-.6" transform="translate(-6467.533 -14646)" fill="#ba5a27"/>
      <path id="Trazado_1277123" data-name="Trazado 1277123" d="M1107.161,932.979a9.266,9.266,0,0,0-3.77-.7v0a9.284,9.284,0,0,0-3.808.471,1.9,1.9,0,0,0-1.11,2.281c.236,1.207.6,3.626,2.247,4.493a5.673,5.673,0,0,0,1.971.466c.155.022.31.036.467.047l0,0c.157,0,.315-.008.469-.019a5.659,5.659,0,0,0,2-.347c1.7-.766,2.208-3.158,2.515-4.35a1.9,1.9,0,0,0-.974-2.343m-.924,5.374a2.647,2.647,0,0,1-1.3.865,4.86,4.86,0,0,1-1.758.25l0,0a4.876,4.876,0,0,1-1.743-.356,2.639,2.639,0,0,1-1.247-.943,7.216,7.216,0,0,1-1.092-3.727c-.01-.564.557-.979,1.056-1.188a7.921,7.921,0,0,1,3.226-.4v0a7.93,7.93,0,0,1,3.2.6c.486.238,1.026.687.982,1.248a7.252,7.252,0,0,1-1.316,3.656" transform="translate(-6516.559 -14701.748)" fill="#006098"/>
      <path id="Trazado_1277124" data-name="Trazado 1277124" d="M1063.338,931.654a9.276,9.276,0,0,0-3.77-.7v0a9.224,9.224,0,0,0-3.8.47,1.894,1.894,0,0,0-1.112,2.281c.234,1.207.594,3.624,2.247,4.492a5.681,5.681,0,0,0,1.969.466c.155.023.309.037.467.047v0c.155,0,.313-.006.467-.017a5.743,5.743,0,0,0,2-.347c1.7-.766,2.206-3.16,2.513-4.35a1.9,1.9,0,0,0-.974-2.346m-.924,5.375a2.654,2.654,0,0,1-1.3.866,4.9,4.9,0,0,1-1.764.249v0a4.892,4.892,0,0,1-1.743-.356,2.667,2.667,0,0,1-1.247-.941,7.258,7.258,0,0,1-1.092-3.73c-.01-.563.557-.977,1.056-1.186a7.909,7.909,0,0,1,3.228-.4v0a7.953,7.953,0,0,1,3.195.6c.488.241,1.029.689.982,1.249a7.234,7.234,0,0,1-1.315,3.656" transform="translate(-6484.543 -14700.78)" fill="#006098"/>
      <path id="Trazado_1277125" data-name="Trazado 1277125" d="M1129.189,936.357l1.3-.561.052-1.7-3.068-.437,1.5,1.37Z" transform="translate(-6537.787 -14702.77)" fill="#006098"/>
      <path id="Trazado_1277126" data-name="Trazado 1277126" d="M1051.524,934.451l-1.266-.636.053-1.7,3.087-.251-1.577,1.275Z" transform="translate(-6481.372 -14701.457)" fill="#006098"/>
      <path id="Trazado_1277127" data-name="Trazado 1277127" d="M1089.248,937.691a1.42,1.42,0,0,1,2.28.069l.242-1.964a5.5,5.5,0,0,0-2.935-.09Z" transform="translate(-6509.558 -14704.17)" fill="#006098"/>
      <g id="Grupo_1213258" data-name="Grupo 1213258" transform="translate(-5429.282 -13769.267)" opacity="0.3">
        <g id="Grupo_1213257" data-name="Grupo 1213257" transform="translate(0 0)">
          <g id="Grupo_1213256" data-name="Grupo 1213256" clip-path="url(#clip-path-5)">
            <path id="Trazado_1277128" data-name="Trazado 1277128" d="M1057.07,934.69c-.01-.564.557-.978,1.055-1.187a7.942,7.942,0,0,1,3.228-.405v0a7.916,7.916,0,0,1,3.195.6c.488.24,1.029.688.982,1.249a7.226,7.226,0,0,1-1.315,3.656,2.638,2.638,0,0,1-1.3.866,4.879,4.879,0,0,1-1.764.25v0a4.862,4.862,0,0,1-1.742-.356,2.632,2.632,0,0,1-1.247-.943,7.242,7.242,0,0,1-1.092-3.727" transform="translate(-1057.062 -933.086)" fill="#56bddc"/>
          </g>
        </g>
      </g>
      <g id="Grupo_1213261" data-name="Grupo 1213261" transform="translate(-5417.475 -13768.914)" opacity="0.3">
        <g id="Grupo_1213260" data-name="Grupo 1213260" transform="translate(0 0)">
          <g id="Grupo_1213259" data-name="Grupo 1213259" clip-path="url(#clip-path-6)">
            <path id="Trazado_1277129" data-name="Trazado 1277129" d="M1108.041,939.914a2.647,2.647,0,0,1-1.3.865,4.857,4.857,0,0,1-1.758.25l0,0a4.879,4.879,0,0,1-1.743-.356,2.64,2.64,0,0,1-1.247-.943A7.218,7.218,0,0,1,1100.9,936c-.01-.564.557-.979,1.056-1.188a7.921,7.921,0,0,1,3.226-.4v0a7.929,7.929,0,0,1,3.2.6c.486.238,1.026.687.982,1.248a7.253,7.253,0,0,1-1.315,3.656" transform="translate(-1100.889 -934.396)" fill="#56bddc"/>
          </g>
        </g>
      </g>
      <path id="Trazado_1277130" data-name="Trazado 1277130" d="M1044.417,932.794l-2.226.43a2.525,2.525,0,0,1,.336,1.152l1.837.12Z" transform="translate(-6475.479 -14702.139)" fill="#006098"/>
      <path id="Trazado_1277131" data-name="Trazado 1277131" d="M1115.3,1065.256c-1.8-10.988,3.72-11.558,3.72-11.558,6.213-1.592,9.1,7.86,9.1,7.86s4.481,20.912,4.423,30.286c0,0-6.59,4.09-9.7-1.751Z" transform="translate(-6528.631 -14790.341)" fill="#f5a58e"/>
      <path id="Trazado_1277132" data-name="Trazado 1277132" d="M996.139,1017.84l-20.8,7.656,11.455,51.284h27.415l7.539-50.263-15.871-8.676Z" transform="translate(-6426.633 -14764.274)" fill="#f5a58e"/>
      <path id="Trazado_1277133" data-name="Trazado 1277133" d="M1002.891,1017.841l13.905,6.991-5.747,51.575c-5.541,2.817-8.649,1.024-17.217,1.012-2.738,0-10.857,1.5-12.046-1.378-.725-1.749-2.762-5.431-2.7-7.285s-1.974-4.879-2.126-6.736-.116-3.7-1.027-5.365c-1.69-3.1-1.667-7.7-2.435-11.186-.783-3.54-1.313-5.292-1.315-8.93,0-1.933-1.659-4.1-2.134-5.978-.5-2-.221-4.408,1.753-5.31,1.753-.8,3.748-1.3,5.565-1.973l11.952-4.547s10.917,3.48,13.57-.891" transform="translate(-6422.613 -14764.275)" fill="#002f75"/>
      <path id="Trazado_1277134" data-name="Trazado 1277134" d="M1300.516,1313.335l16.2,8.794,5.747-2.019-14.322-14.4Z" transform="translate(-6664.214 -14974.597)" fill="#f5a58e"/>
      <path id="Trazado_1277135" data-name="Trazado 1277135" d="M1356.766,1350.967l-.559,8.392h27.06s.892-1-.892-3.566l-14.34-5.106-5.982-4.233a3.131,3.131,0,0,0-1.5,3.325Z" transform="translate(-6704.903 -15004.363)" fill="#00a4b6"/>
      <path id="Trazado_1277136" data-name="Trazado 1277136" d="M1383.44,1389.469a1.585,1.585,0,0,1-.173,1.318h-27.06l.086-1.318Z" transform="translate(-6704.903 -15035.791)" fill="#007a92"/>
      <path id="Trazado_1277137" data-name="Trazado 1277137" d="M1394.989,1361.672c.072.487-.306.957-.522,1.372a4.42,4.42,0,0,1-.838,1.259v-.365s.005,0,.005.005l-.42-.16c.179.016.52.1.518.339-.008.3-.528.358-.736.358-.126,0-.971-.142-.708-.456a9.66,9.66,0,0,0,.9-1.3,2.534,2.534,0,0,1,1.117-1.194c.163-.075.646-.121.685.139" transform="translate(-6731.228 -15015.339)" fill="#fff"/>
      <path id="Trazado_1277138" data-name="Trazado 1277138" d="M1406.634,1366.225a6.679,6.679,0,0,1-.21.966,2.978,2.978,0,0,1-.829,1.286c-.223.161-1.308.328-1.284-.17a2.769,2.769,0,0,1,.653-1.21,9.292,9.292,0,0,1,.9-.972c.113-.114.831-.166.768.1" transform="translate(-6740.048 -15018.667)" fill="#fff"/>
      <path id="Trazado_1277139" data-name="Trazado 1277139" d="M1417.942,1369.4a3.742,3.742,0,0,1-.856,2.457c-.265.352-1.677.282-1.4-.191a10.8,10.8,0,0,1,1.53-2.362c.139-.138.7-.164.727.1" transform="translate(-6748.332 -15020.981)" fill="#fff"/>
      <path id="Trazado_1277140" data-name="Trazado 1277140" d="M1052.147,1224.955c-1.932.333-11.9,12.092-13.222,13.389-2.071,2.036-4.073,4.125-6.084,6.22-3.265,3.4-6.769,6.658-11.531,7.657-3.694.775-10.881-.017-14.13-2.563-13.02-10.195-4.1-32.958-4.1-32.958a434.825,434.825,0,0,1,44.239-14.719c8.654-2.306,12.489,1.68,12.489,1.68,12.776,10.465,28.355,23.975,41.131,34.44,0,0-3.228,8.709-9.366,7.871" transform="translate(-6444.724 -14898.285)" fill="#0e446e"/>
      <path id="Trazado_1277141" data-name="Trazado 1277141" d="M1194.219,1288.715c1.247,3.733,8.743,7.238,12.182,8.632,3.638,1.476,7.639,2.332,11.259,3.664a41.4,41.4,0,0,1,9.421,5.265c3.738,2.952,2.461,4.212,7.6,3.421" transform="translate(-6586.552 -14962.179)" fill="#0e446e"/>
      <path id="Trazado_1277142" data-name="Trazado 1277142" d="M1110.592,1069.865l-3.386-18.457s-4.927-10.733,3.653-16.4c0,0,9.256,1.454,10.97,10.177l4.639,18.425s-.467,4.589-15.876,6.252" transform="translate(-6521.951 -14776.82)" fill="#002f75"/>
      <path id="Trazado_1277143" data-name="Trazado 1277143" d="M990.232,1087.309s-1.249,11.625-.281,17.925c.538,3.5-.1,6.382-.95,9.746-.42,1.661-1.242,3.3-1.26,5.04-.016,1.658.438,3.305.462,4.989.042,3.3.764,6.523.1,9.779a21.174,21.174,0,0,0-.511,5.367c.109,2.083,1.9,12.655,2.166,14.7,7.514.333,7.175-5.523,9.409-11.193,1.423-3.612,4.064-11.944,7.739-13.516,3.43-1.469,4.83-1.045,8.46-1.466,3.659-.423,11.269-4.3,14.317-6.38,2.422-1.659-.738-3.015,0-5.982.806-3.247.892-4.952-.186-7.962a93.4,93.4,0,0,1-3.374-11.145c-.735-3.3-1.486-6.51-4.061-8.9-7.5-6.973-20.378-5.776-29.092-2.241Z" transform="translate(-6435.696 -14812.054)" fill="#002f75"/>
      <path id="Trazado_1277144" data-name="Trazado 1277144" d="M991.3,1097.818c-15.408,0-50.5,13.508-51.823-2.021-1.085-12.7,3.2-32.722,9.024-37.276,4.326-3.384,10.14-1.5,12.465,3.57,2.589,5.653-5.029,20.29-6.307,28.4,0,0,13.051.367,37.594,2.908Z" transform="translate(-6400.314 -14792.749)" fill="#f5a58e"/>
      <path id="Trazado_1277145" data-name="Trazado 1277145" d="M923.363,1081.892,933.394,1050c2.043-5.388,5.5-6.293,6.211-6.293,10.718,0,11.664,13.236,11.664,13.236l-5.188,23.387s-11.678,6.689-22.718,1.561" transform="translate(-6388.661 -14783.174)" fill="#002f75"/>
      <path id="Trazado_1277146" data-name="Trazado 1277146" d="M1110.989,1197.864c.559-.738,3.624-1.208,5.066-1.3a33.608,33.608,0,0,1,11.009.933,29.815,29.815,0,0,1,5.16,1.688c.709.394,2.092.712,1.858,1.593-.551.3-3.743-.339-5.843-.829,3.063.892,3.78,1.733,3.841,2.14-.746.824-4.34-.8-6.864-1.347-.817-.177,4.8,1.94,2.052,2.168-.593.048-4.457-1.064-6.286-1.479.2.19,2.625,1.454,2.564,1.671-.052.565-2.478-.032-3.688-.359-1.627-.441-11.066-1.97-8.869-4.875" transform="translate(-6525.502 -14894.779)" fill="#f5a58e"/>
      <path id="Trazado_1277147" data-name="Trazado 1277147" d="M1154.937,1170.71l24.27,6.477-5.076.942s-23.845,4-27.958-.784c0,0,2.858-8,8.765-6.635" transform="translate(-6551.448 -14875.849)" fill="#f5a58e"/>
      <path id="Trazado_1277148" data-name="Trazado 1277148" d="M1056.075,1025.012c-.055.049-1.451-.474-1.54-.435a1.275,1.275,0,0,0-.215.127,1.829,1.829,0,0,1-.209.137c-.255.134-.529.238-.791.361a8.968,8.968,0,0,1-1.441.545c-.116.033-.233.063-.349.1-.232.065.124-.01-.111.024-.258.037-.516.063-.776.083-.237.019-.474.031-.71.06-.191.023-.375.075-.563.11,0,0,.264-.053.111-.03-.181.027.379,0,.045-.006-.109,0-.219-.005-.328-.006s-.2,0-.321.009a3.9,3.9,0,0,1-.564.088s.283-.037.114-.023.139,0,.138,0a1.641,1.641,0,0,0-.409,0c-.058,0-.318-.02-.09,0s0,0-.033-.007c-.125-.021-.25-.044-.374-.064a5.508,5.508,0,0,0-1.433-.031c-.147.015-.294.037-.44.062-.356.06.258-.032.256.011a7.493,7.493,0,0,0-1.132-.131c-.221-.01.213.015.2.014-.051-.006-.211-.042.015.01.254.058-.121-.035-.195-.055-.112-.031-.225-.065-.338-.093,0,0-.659-.1-.3-.065.232.021.026-.008-.036-.024-.15-.038.105.039.114.046a.918.918,0,0,0-.186-.076c-.126-.052-.252-.1-.379-.152a5.831,5.831,0,0,0-1.281-.355,3.675,3.675,0,0,0-.741-.054c-.269.019.591.1.538.082.053.015.288.127.118.036.358.19-.1-.075-.141-.1a3.581,3.581,0,0,0-.443-.167c-.143-.05-.286-.1-.429-.152a2.384,2.384,0,0,0-1.4,0c-.265.078-.68.248-.686.586a1.089,1.089,0,0,0,.07.522,1.471,1.471,0,0,0,.662.54,3.35,3.35,0,0,0,1.049.3c.2.028.4.024.6.041q-.377-.035-.179-.009t-.151-.033c0-.012.678.221.247.066.262.094.519.2.783.293.08.027.161.051.243.072q.151.036.3.065.4.082.016.005a.933.933,0,0,1,.279.069c.152.037.305.069.459.1a4.516,4.516,0,0,0,1.028.123c.269-.008-.263-.05-.041,0,.1.021.21.033.315.047a5.805,5.805,0,0,0,1.166.04c.027,0,.845-.087.841-.112.006.037-.554-.048-.307,0,.1.021.211.033.316.047a5.883,5.883,0,0,0,1.05.047,6.185,6.185,0,0,0,1.749-.25l-.766.1a9.735,9.735,0,0,0,1.133-.08c.148-.023.3-.056.441-.089.019,0,.283-.093.111-.034s.068-.01.109-.016l.231-.032a10.3,10.3,0,0,0,1.985-.412,11.847,11.847,0,0,0,1.948-.853c.4-.221,1.443-.762,1.13-1.346l-1.087.532a1.2,1.2,0,0,0,.994-.218" transform="translate(-6473.396 -14769.195)" fill="#00204e"/>
      <path id="Trazado_1277149" data-name="Trazado 1277149" d="M994.141,1042.862a9.715,9.715,0,0,0,.5,1.176c.254.389.506.782.754,1.175.266.421.6.792.878,1.208a8.267,8.267,0,0,1,.733,1.37c.213.509.465,1,.674,1.509a6.765,6.765,0,0,1,.35,1.565,10.342,10.342,0,0,1,.135,1.5c0,.241-.015.482-.008.723s.087.45.093.678c0,.049,0,.1-.008.145.01-.143.007-.03-.006.016a2.053,2.053,0,0,0-.094.437c-.017.276,0,.539-.033.814-.078.562-.124,1.127-.18,1.691-.115,1.143-.349,2.271-.564,3.4-.205,1.078-.383,2.153-.514,3.243a5.286,5.286,0,0,0-.013.754,6.688,6.688,0,0,1-.072.823c-.058.547-.134,1.085-.227,1.628a28.178,28.178,0,0,0-.479,3.8c-.04,1.267.193,2.52.159,3.785-.006.227.584.21.66.044a16.688,16.688,0,0,0,1.049-3.319c.257-1.123.526-2.24.848-3.346.163-.558.337-1.112.5-1.671a12.735,12.735,0,0,1,.432-1.661,13.646,13.646,0,0,0,.536-1.558c.175-.578.43-1.127.577-1.715s.251-1.164.364-1.747.251-1.135.337-1.71c.084-.558.137-1.119.2-1.678.033-.275.07-.549.113-.823s.012-.568.046-.853c0,.015-.03.134,0,.026s.06-.189.081-.286a.87.87,0,0,0,.015-.32,6.962,6.962,0,0,1-.117-.706,11.6,11.6,0,0,0-.107-1.517c-.1-.573-.217-1.147-.37-1.708a8.26,8.26,0,0,0-.693-1.683,14.983,14.983,0,0,0-.867-1.6,11.908,11.908,0,0,0-1.248-1.514,16.189,16.189,0,0,0-1.47-1.18c-.127-.1-.252-.21-.387-.3-.2-.139-.45-.171-.647-.3-.014-.009-.182-.157-.248-.208-.158-.12-.317-.239-.483-.348a1.064,1.064,0,0,0-.813-.131c-.163.036-.486.147-.377.376" transform="translate(-6440.357 -14782.26)" fill="#00204e"/>
      <path id="Trazado_1277150" data-name="Trazado 1277150" d="M1106.763,1026.084a2.418,2.418,0,0,0,.147.519c.066.144.178.26.252.4a1.837,1.837,0,0,0,.23.425,4.9,4.9,0,0,1,.422.52,19.469,19.469,0,0,1,1.162,2.4,10.255,10.255,0,0,1,.542,1.112,9.973,9.973,0,0,1,.214,1.516c.156.911.281,1.835.395,2.752a5.349,5.349,0,0,1,.1,1.322,10.594,10.594,0,0,0-.107,1.338,19.976,19.976,0,0,0,.113,2.781,17.454,17.454,0,0,1,.038,2.9c-.022.946,0,1.893,0,2.839a11.239,11.239,0,0,0,.021,1.456,5.556,5.556,0,0,1,.1.772,2.51,2.51,0,0,0,.11.811c.315.969.519,1.973.876,2.928.086.231.881.228.866-.057-.047-.914.065-1.824.06-2.737,0-.418.052-.838.025-1.257-.015-.236-.1-.441-.109-.683s0-.484,0-.725c0-.952,0-1.9.016-2.855s.089-1.91.045-2.866c-.021-.455-.106-.9-.124-1.358-.018-.482-.005-.966,0-1.449a9.8,9.8,0,0,1,.041-1.3,4.483,4.483,0,0,0,.06-1.38c-.143-.9-.229-1.812-.345-2.718-.06-.473-.136-.94-.184-1.414a4.044,4.044,0,0,0-.428-1.449,22.845,22.845,0,0,0-1.48-2.707,4.039,4.039,0,0,0-.927-1.016c-.2-.145-.415-.238-.608-.4-.213-.177-.432-.344-.631-.536-.134-.128-.964-.2-.9.119" transform="translate(-6522.653 -14770.132)" fill="#00204e"/>
      <path id="Trazado_1277151" data-name="Trazado 1277151" d="M1117.319,1140.608a10.63,10.63,0,0,0-.042,1.659c.11.559.277,1.115.425,1.666.153.57.331,1.136.5,1.7a3.542,3.542,0,0,0,.363.823,4.559,4.559,0,0,1,.389.8,5.134,5.134,0,0,1,.263,1.684c0,.564.044,1.14-.013,1.7a5.728,5.728,0,0,1-.231.976,2.845,2.845,0,0,1-.2.532c-.036.069-.1.13-.13.2a1.57,1.57,0,0,0-.057.2.344.344,0,0,1,.258-.271c-.493.3-.279.67.213.808a1.923,1.923,0,0,0,1.933-.416,2.337,2.337,0,0,0,.282-.931c.044-.268.1-.547.119-.818a12.975,12.975,0,0,0-.093-1.462,6.383,6.383,0,0,0-.642-2.945,5.447,5.447,0,0,0-.411-.59,3.818,3.818,0,0,1-.377-.745c-.219-.487-.457-.968-.663-1.461-.229-.545-.471-1.085-.675-1.639a3.343,3.343,0,0,0-.424-.744c-.17-.242-.306-.513-.493-.742-.043-.053-.294-.093-.289.019" transform="translate(-6530.311 -14853.918)" fill="#00204e"/>
      <path id="Trazado_1277152" data-name="Trazado 1277152" d="M1028.29,1250.638a8.9,8.9,0,0,0-1.016-.1c-.333.005-.665,0-1,0-.628,0-1.256.01-1.884,0a15.975,15.975,0,0,0-4.143.372,10.91,10.91,0,0,0-6.35,5.228,15.73,15.73,0,0,0-1.564,3.48q-.275.97-.5,1.952c-.131.575-.325,1.135-.491,1.7a61.717,61.717,0,0,1-2.276,6.94,18.621,18.621,0,0,1-1.955,3.555,14.792,14.792,0,0,1-1.2,1.434c-.227.246-.4.535-.608.8s-.424.43-.339.782c.075.309.548.331.8.3a5.75,5.75,0,0,0,3.438-2.336,16.481,16.481,0,0,0,1.929-3,40.961,40.961,0,0,0,2.524-6.823,26.752,26.752,0,0,1,1.191-3.5c.538-1.17,1.089-2.352,1.7-3.485a20.825,20.825,0,0,1,2.115-3.2l.131-.159c.017-.021.131-.151.023-.029q.136-.155.278-.305.354-.377.74-.721a8.11,8.11,0,0,1,.71-.567c-.013.009.292-.194.145-.1s.157-.091.147-.085q.228-.13.466-.241c.062-.029.124-.057.186-.084.086-.037.33-.2.04-.021a2.237,2.237,0,0,1,.469-.154q.23-.071.463-.127c.061-.015.126-.025.186-.042-.392.113-.091.021,0,0,.317-.055.636-.094.956-.125.161-.015.322-.028.483-.04.258-.02-.059,0-.09.005a2.074,2.074,0,0,1,.3-.018c.756-.043,1.522-.057,2.274-.153a10.642,10.642,0,0,0,1.2-.246,2.231,2.231,0,0,0,.873-.474c.275-.221-.188-.407-.351-.423" transform="translate(-6448.268 -14934.29)" fill="#00204e"/>
      <path id="Trazado_1277153" data-name="Trazado 1277153" d="M1003.637,1250.819a4.641,4.641,0,0,1-1.062.223,3.757,3.757,0,0,0-1.221.432,7.647,7.647,0,0,0-1.627,1.068,8.389,8.389,0,0,0-2.02,2.97,8.969,8.969,0,0,0-.467,1.691c-.042.245-.03.495-.064.74-.038.275-.1.546-.127.823a6.4,6.4,0,0,1-.425,1.684c-.2.554-.374,1.114-.607,1.655a7.68,7.68,0,0,1-.875,1.6c-.035.046-.26.311-.131.17a1.4,1.4,0,0,0-.12.128c-.092.134.043-.01.115-.047a1.69,1.69,0,0,0-.808.763c-.233.589.516.867.96.959a3.041,3.041,0,0,0,1.08.041,1.759,1.759,0,0,0,.991-.374c.043-.047.155-.144-.052-.007a1.082,1.082,0,0,1,.129-.065,2.875,2.875,0,0,0,.467-.272,2.822,2.822,0,0,0,.548-.615,5.98,5.98,0,0,0,.687-1.25,12.853,12.853,0,0,0,.58-1.731c.154-.575.334-1.151.449-1.735a13.663,13.663,0,0,0,.139-1.681c.017-.246-.011-.493.006-.739a8.759,8.759,0,0,1,.14-.88,6.974,6.974,0,0,1,1.418-2.951,6.01,6.01,0,0,1,1.292-1.21,4.492,4.492,0,0,0,.394-.279,1.831,1.831,0,0,0,.217-.307c.168-.229.237-.46.417-.689.125-.159-.367-.141-.421-.12" transform="translate(-6440.381 -14934.482)" fill="#00204e"/>
      <path id="Trazado_1277154" data-name="Trazado 1277154" d="M1032.008,1305.5a13.9,13.9,0,0,0,5.3,1.453,30.805,30.805,0,0,0,4.8.258,22.151,22.151,0,0,0,8.012-1.682,19.8,19.8,0,0,0,5.031-3.161,18.818,18.818,0,0,0,1.955-1.84c.194-.219.374-.446.552-.677.057-.074.115-.149.173-.222l.036-.044q-.116.13.032-.032l-.136.063q.206-.119.4-.252c.09-.06.179-.119.263-.188a4.1,4.1,0,0,0,.6-.623c.148-.183.256-.389.405-.57.041-.049-.281.322-.079.092l.149-.169q.2-.231.411-.461.587-.655,1.173-1.312,1.665-1.859,3.338-3.712,4.153-4.606,8.311-9.207c1.839-2.039,3.717-4.052,5.493-6.147.05-.059.1-.116.147-.177l-4.072-.55a1.748,1.748,0,0,0,.027,1.537,8.49,8.49,0,0,0,.793,1.615,24.419,24.419,0,0,0,2,2.871c2.617,3.24,6.574,5.033,10.373,6.5,2.179.843,4.392,1.589,6.619,2.3,1.025.326,2.052.645,3.078.969l.4.127c.012,0,.172.053.172.054l-.33-.132a.342.342,0,0,0,.034.015c.063.029.127.055.191.083,1.95.854,3.872,1.78,5.742,2.8q1.017.554,2.011,1.15.225.135.448.273l.26.162c.282.176-.2-.129.007,0,.329.213.657.428.98.65.625.43,1.235.88,1.821,1.362a13.024,13.024,0,0,0,1.9,1.512,5.633,5.633,0,0,0,1.222.579l-.6-.381.041.054a1.727,1.727,0,0,0,1.6.446c.245-.04,1.262-.325.909-.785l-.042-.054v.339c.15-.19.07-.587.031-.813a1.89,1.89,0,0,0-.54-.9,11.6,11.6,0,0,0-1.644-1.522,38.116,38.116,0,0,0-3.867-2.653,58.053,58.053,0,0,0-6.378-3.4,15.273,15.273,0,0,0-1.747-.706c-2.008-.628-4.021-1.237-6.019-1.9-1.018-.338-2.032-.688-3.038-1.061-.116-.043-.23-.088-.347-.13,0,0,.34.13.151.057l-.173-.066q-.373-.144-.745-.293-.739-.3-1.469-.614c-.947-.413-1.885-.851-2.793-1.344q-.3-.161-.591-.332-.146-.085-.291-.173l-.144-.088c-.186-.113.017-.03.05.033-.037-.071-.256-.167-.329-.216q-.14-.094-.278-.19-.3-.209-.588-.431c-.385-.3-.757-.61-1.112-.943q-.247-.232-.481-.475-.138-.143-.271-.29c-.03-.033-.075-.106-.114-.127-.011-.006.174.209.1.123-.258-.321-.514-.644-.76-.976a18.074,18.074,0,0,1-1.966-3.135,4.81,4.81,0,0,1-.265-.7l.075.275a1.259,1.259,0,0,1-.039-.647c-.025.092-.05.183-.075.275a.541.541,0,0,1,.068-.137c.189-.273-.009-.616-.213-.8a2.493,2.493,0,0,0-1.262-.475,2.841,2.841,0,0,0-2.6.723c-.049.065-.1.127-.155.189l-.12.14c-.112.131.277-.32.125-.144l-.091.105q-.475.547-.956,1.088-1.514,1.713-3.04,3.416-4.047,4.531-8.1,9.055-1.785,1.995-3.565,3.993-.686.77-1.369,1.542l-.276.312-.117.132c-.122.139-.422.482-.066.077l-.065.075q-.309.356-.616.713c-.152.177-.321.352-.455.544-.061.088-.1.189-.165.278-.02.03-.243.28-.069.1-.051.053-.1.1-.157.153s-.182.192-.253.2l.139-.087a3.323,3.323,0,0,0-.4.247,4.967,4.967,0,0,0-.582.68,8.653,8.653,0,0,1-1.005,1.151c-.6.59-1.223,1.158-1.88,1.686q-.52.419-1.069.8c-.176.122-.355.239-.534.357-.21.139.308-.189.092-.058l-.16.1q-.162.1-.326.193-.62.358-1.268.662-.337.157-.68.3c-.106.044-.213.086-.32.129-.265.106.392-.144.122-.046l-.266.1c-.508.179-1.025.333-1.548.464q-.186.046-.373.089l-.227.05c-.311.069.453-.089.138-.029-.291.056-.582.108-.875.152-.65.1-1.3.161-1.958.216.663-.055.077-.007-.065,0-.186.008-.373.015-.559.019q-.53.012-1.061,0-.555-.01-1.109-.041c-.109-.006-.482-.041.035,0l-.212-.015q-.378-.029-.755-.066-.558-.055-1.115-.129-.346-.045-.69-.1c-.078-.012-.156-.025-.234-.036a2.866,2.866,0,0,0-.541-.047q.327.021.054,0c-1-.119-1.982-.2-2.985-.226-.374-.009-1.17.313-.564.667" transform="translate(-6467.878 -14952.582)" fill="#0b3250"/>
      <path id="Trazado_1277155" data-name="Trazado 1277155" d="M1233.709,1221.188c.935.914,1.832,1.888,2.807,2.759,1.145,1.023,2.275,2.062,3.423,3.08,2.325,2.062,4.715,4.053,7.06,6.093,2.374,2.064,4.725,4.153,7.174,6.129,2.57,2.073,5.223,4.038,7.818,6.078,1.5,1.178,2.994,2.374,4.452,3.6.806.679,1.571,1.4,2.349,2.115a13.984,13.984,0,0,0,2.53,2.009,1.514,1.514,0,0,0,1.186.035c.267-.109.478-.309.233-.571-.612-.654-1.339-1.205-1.995-1.817-.677-.631-1.342-1.277-2.03-1.9-.669-.6-1.379-1.155-2.062-1.739q-.957-.818-1.932-1.614c-2.52-2.062-5.114-4.032-7.657-6.065-2.493-1.994-4.887-4.1-7.286-6.2q-3.437-3.012-6.9-6c-1.343-1.158-2.73-2.263-4.109-3.378-1.279-1.034-2.638-1.974-3.973-2.935a1.033,1.033,0,0,0-.862-.111c-.2.058-.429.224-.226.422" transform="translate(-6615.346 -14912.501)" fill="#0b3250"/>
      <path id="Trazado_1277156" data-name="Trazado 1277156" d="M1353.325,1337.037a2.617,2.617,0,0,1-.349.437,1.823,1.823,0,0,0-.268.62,5.47,5.47,0,0,1-.588,1.05,14.8,14.8,0,0,1-1.377,1.8,12.207,12.207,0,0,1-2.048,1.654,10.467,10.467,0,0,1-1.045.592,4.568,4.568,0,0,0-1.194.7c-.21.2-.155.418.082.575a1.769,1.769,0,0,0,1.11.186q-1.541-.341-1.028-.133a1.552,1.552,0,0,0,.466.133,2.975,2.975,0,0,0,.679-.009,3.949,3.949,0,0,0,.954-.228,8.014,8.014,0,0,0,1.528-.751,14.238,14.238,0,0,0,2.542-1.98,9.373,9.373,0,0,0,1.605-2.086,5.629,5.629,0,0,0,.519-1.3,1.108,1.108,0,0,0,.057-.684,2.918,2.918,0,0,0-.432-.565c-.243-.283-.991-.355-1.215,0" transform="translate(-6697.684 -14997.308)" fill="#0b3250"/>
      <rect id="Rectángulo_461804" data-name="Rectángulo 461804" width="47.532" height="2.271" transform="translate(-5424.906 -13693.615)" fill="#a3a3a3"/>
      <path id="Trazado_1277157" data-name="Trazado 1277157" d="M1180.748,1137.659h-44.232l3.879-31.225h44.233Z" transform="translate(-6544.394 -14829.003)" fill="#fff"/>
      <path id="Trazado_1277158" data-name="Trazado 1277158" d="M1130.656,1137.659h1.578l3.879-31.225h-1.574Z" transform="translate(-6540.112 -14829.003)" fill="#d2d1d1"/>
      <path id="Trazado_1277159" data-name="Trazado 1277159" d="M1219.758,1152a3.537,3.537,0,1,1-3.539-3.539,3.539,3.539,0,0,1,3.539,3.539" transform="translate(-6600.042 -14859.711)" fill="#d2d1d1"/>
    </g>
  </g>
</svg>
