<svg xmlns="http://www.w3.org/2000/svg" width="69.32" height="69.32" viewBox="0 0 69.32 69.32"><g transform="matrix(1 0 0 1 -1226.0 -7069.2373046875)"><g transform="matrix(1 0 0 1 921 0)"><g><g transform="matrix(1 0 0 1 305 7069.2373046875)"><path d="M 0 0 L 69.32257843017578 0 L 69.32257843017578 69.32257843017578 L 0 69.32257843017578 L 0 0 Z" fill="rgb(25,83,141)" stroke="none" stroke-width="0"/></g></g><g transform="matrix(1 0 0 1 316.3662109375 7077.45263671875)"><g><path d="M 30.76468849182129 48.12409591674805 C 32.60679626464844 48.12409591674805 34.10938262939453 46.62987518310547 34.10938262939453 44.77924346923828 L 34.10938262939453 32.91996765136719 L 32.41155242919922 32.91996765136719 L 32.41155242919922 40.17815780639648 C 32.41155242919922 41.08664321899414 31.67301559448242 41.82512664794922 30.76468849182129 41.82512664794922 L 11.56222629547119 41.82512664794922 C 10.65395641326904 41.82512664794922 9.915362358093262 41.08664321899414 9.915362358093262 40.17815780639648 L 9.915362358093262 13.62412738800049 C 9.915362358093262 12.71585845947266 10.65395164489746 11.97726345062256 11.56222629547119 11.97726345062256 L 30.76468849182129 11.97726345062256 C 31.67301177978516 11.97726345062256 32.41155242919922 12.71585369110107 32.41155242919922 13.62412738800049 L 32.41155242919922 14.24384498596191 L 34.10938262939453 14.24384498596191 L 34.10938262939453 9.023116111755371 C 34.10938262939453 7.180896759033203 32.60680389404297 5.678262710571289 30.76468849182129 5.678262710571289 L 11.56222629547119 5.678262710571289 C 9.720120429992676 5.678262710571289 8.217530250549316 7.180904865264893 8.217530250549316 9.023116111755371 L 8.217530250549316 44.779296875 C 8.217530250549316 46.62992858886719 9.720111846923828 48.12414932250977 11.56222629547119 48.12414932250977 L 30.76468849182129 48.12414932250977 Z" fill="rgb(255,255,255)" stroke="none" stroke-width="0"/></g><g transform="matrix(1 0 0 1 -2.730689525604248 -1.498596429824829)"><path d="M 46.52619171142578 17.44020080566406 L 32.09460830688477 17.44020080566406 C 30.74488067626953 17.44020080566406 29.64971923828125 18.53541564941406 29.64971923828125 19.87667846679688 L 29.64971923828125 34.84298324584961 C 29.64971923828125 35.17404174804688 29.84496688842773 35.47122192382812 30.14214897155762 35.60703277587891 C 30.26091575622559 35.66636276245117 30.37978935241699 35.69192886352539 30.49860954284668 35.69192886352539 C 30.70237731933594 35.69192886352539 30.89762306213379 35.61544799804688 31.05047607421875 35.4881591796875 L 34.2762451171875 32.72073364257812 L 46.52618026733398 32.72073364257812 C 47.86744689941406 32.72073364257812 48.96254730224609 31.62551879882812 48.96254730224609 30.27594757080078 L 48.96254730224609 19.87668991088867 C 48.96254730224609 18.53542327880859 47.86744689941406 17.44020843505859 46.52618026733398 17.44020843505859 Z" fill="rgb(255,255,255)" stroke="none" stroke-width="0"/></g></g></g><g transform="matrix(1 0 0 1 1440.70263671875 7218.32080078125)"><g transform="matrix(1 0 0 1 -182.46087646484375 -142.0947265625)"><path d="M 20.69174385070801 32.77499389648438 C 20.89581871032715 32.77499389648438 21.0627613067627 32.60804748535156 21.0627613067627 32.40395355224609 L 21.0627613067627 30.22964859008789 C 21.0627613067627 28.86428451538086 20.14632987976074 27.66213989257812 18.82914733886719 27.29482460021973 L 16.89236831665039 26.51568031311035 C 16.86639213562012 26.50455474853516 16.85898780822754 26.47862243652344 16.85526466369629 26.46745109558105 C 16.85154151916504 26.43774795532227 16.86266708374023 26.42662239074707 16.87009239196777 26.42289733886719 C 17.80510330200195 25.63635063171387 18.36164474487305 24.21903038024902 18.36164474487305 22.63467407226562 C 18.36164474487305 20.72764205932617 17.11499404907227 19.49207496643066 15.17819309234619 19.49207496643066 C 13.24511528015137 19.49207496643066 11.99474048614502 20.72764587402344 11.99474048614502 22.63467407226562 C 11.99474048614502 24.21903419494629 12.5512809753418 25.6363525390625 13.48629188537598 26.42289733886719 C 13.49371719360352 26.42662239074707 13.50484466552734 26.43774795532227 13.50114250183105 26.46745109558105 C 13.50114250183105 26.47862243652344 13.49371719360352 26.50455474853516 13.46403884887695 26.51568031311035 L 11.52725791931152 27.29482460021973 C 10.21007633209229 27.66214370727539 9.297369956970215 28.86428451538086 9.297369956970215 30.22964859008789 L 9.297369956970215 32.40395355224609 C 9.297369956970215 32.60804748535156 9.460615158081055 32.77499389648438 9.668389320373535 32.77499389648438 L 11.54581260681152 32.77499389648438 L 11.54581260681152 30.96065521240234 C 11.54581260681152 30.75655937194824 11.70908069610596 30.58961486816406 11.91685581207275 30.58961486816406 C 12.12090587615967 30.58961486816406 12.28787517547607 30.75655937194824 12.28787517547607 30.96065521240234 L 12.28787517547607 32.77499389648438 L 18.07223892211914 32.77499389648438 L 18.07223892211914 30.96065521240234 C 18.07223892211914 30.75655937194824 18.23918533325195 30.58961486816406 18.44326019287109 30.58961486816406 C 18.6473560333252 30.58961486816406 18.81430244445801 30.75655937194824 18.81430244445801 30.96065521240234 L 18.81430244445801 32.77499389648438 L 20.69174385070801 32.77499389648438 Z" fill="rgb(25,83,141)" stroke="none" stroke-width="0"/></g></g></g></svg>